G04 #@! TF.GenerationSoftware,KiCad,Pcbnew,5.1.5+dfsg1-2build2*
G04 #@! TF.CreationDate,2020-11-19T12:47:17+00:00*
G04 #@! TF.ProjectId,EncoderBoard_IG,456e636f-6465-4724-926f-6172645f4947,rev?*
G04 #@! TF.SameCoordinates,Original*
G04 #@! TF.FileFunction,Soldermask,Bot*
G04 #@! TF.FilePolarity,Negative*
%FSLAX46Y46*%
G04 Gerber Fmt 4.6, Leading zero omitted, Abs format (unit mm)*
G04 Created by KiCad (PCBNEW 5.1.5+dfsg1-2build2) date 2020-11-19 12:47:17*
%MOMM*%
%LPD*%
G04 APERTURE LIST*
%ADD10C,0.100000*%
G04 APERTURE END LIST*
D10*
G36*
X144538000Y-93674500D02*
G01*
X142736000Y-93674500D01*
X142736000Y-91872500D01*
X144538000Y-91872500D01*
X144538000Y-93674500D01*
G37*
G36*
X143750512Y-89337427D02*
G01*
X143899812Y-89367124D01*
X144063784Y-89435044D01*
X144211354Y-89533647D01*
X144336853Y-89659146D01*
X144435456Y-89806716D01*
X144503376Y-89970688D01*
X144538000Y-90144759D01*
X144538000Y-90322241D01*
X144503376Y-90496312D01*
X144435456Y-90660284D01*
X144336853Y-90807854D01*
X144211354Y-90933353D01*
X144063784Y-91031956D01*
X143899812Y-91099876D01*
X143750512Y-91129573D01*
X143725742Y-91134500D01*
X143548258Y-91134500D01*
X143523488Y-91129573D01*
X143374188Y-91099876D01*
X143210216Y-91031956D01*
X143062646Y-90933353D01*
X142937147Y-90807854D01*
X142838544Y-90660284D01*
X142770624Y-90496312D01*
X142736000Y-90322241D01*
X142736000Y-90144759D01*
X142770624Y-89970688D01*
X142838544Y-89806716D01*
X142937147Y-89659146D01*
X143062646Y-89533647D01*
X143210216Y-89435044D01*
X143374188Y-89367124D01*
X143523488Y-89337427D01*
X143548258Y-89332500D01*
X143725742Y-89332500D01*
X143750512Y-89337427D01*
G37*
G36*
X152735015Y-84356473D02*
G01*
X152838879Y-84387979D01*
X152866055Y-84402505D01*
X152934600Y-84439143D01*
X153018501Y-84507999D01*
X153087357Y-84591900D01*
X153123995Y-84660445D01*
X153138521Y-84687621D01*
X153170027Y-84791485D01*
X153180666Y-84899500D01*
X153170027Y-85007515D01*
X153138521Y-85111379D01*
X153138519Y-85111382D01*
X153087357Y-85207100D01*
X153018501Y-85291001D01*
X152934600Y-85359857D01*
X152866055Y-85396495D01*
X152838879Y-85411021D01*
X152826131Y-85414888D01*
X152803504Y-85424260D01*
X152783130Y-85437874D01*
X152765803Y-85455201D01*
X152752189Y-85475575D01*
X152742812Y-85498214D01*
X152738031Y-85522247D01*
X152738031Y-85546751D01*
X152742811Y-85570785D01*
X152752188Y-85593424D01*
X152765802Y-85613798D01*
X152783129Y-85631125D01*
X152803503Y-85644739D01*
X152826131Y-85654112D01*
X152838879Y-85657979D01*
X152866055Y-85672505D01*
X152934600Y-85709143D01*
X153018501Y-85777999D01*
X153087357Y-85861900D01*
X153123995Y-85930445D01*
X153138521Y-85957621D01*
X153170027Y-86061485D01*
X153180666Y-86169500D01*
X153170027Y-86277515D01*
X153138521Y-86381379D01*
X153138519Y-86381382D01*
X153087357Y-86477100D01*
X153018501Y-86561001D01*
X152934600Y-86629857D01*
X152866055Y-86666495D01*
X152838879Y-86681021D01*
X152826131Y-86684888D01*
X152803504Y-86694260D01*
X152783130Y-86707874D01*
X152765803Y-86725201D01*
X152752189Y-86745575D01*
X152742812Y-86768214D01*
X152738031Y-86792247D01*
X152738031Y-86816751D01*
X152742811Y-86840785D01*
X152752188Y-86863424D01*
X152765802Y-86883798D01*
X152783129Y-86901125D01*
X152803503Y-86914739D01*
X152826131Y-86924112D01*
X152838879Y-86927979D01*
X152866055Y-86942505D01*
X152934600Y-86979143D01*
X153018501Y-87047999D01*
X153087357Y-87131900D01*
X153123995Y-87200445D01*
X153138521Y-87227621D01*
X153170027Y-87331485D01*
X153180666Y-87439500D01*
X153170027Y-87547515D01*
X153138521Y-87651379D01*
X153138519Y-87651382D01*
X153087357Y-87747100D01*
X153018501Y-87831001D01*
X152934600Y-87899857D01*
X152866055Y-87936495D01*
X152838879Y-87951021D01*
X152826131Y-87954888D01*
X152803504Y-87964260D01*
X152783130Y-87977874D01*
X152765803Y-87995201D01*
X152752189Y-88015575D01*
X152742812Y-88038214D01*
X152738031Y-88062247D01*
X152738031Y-88086751D01*
X152742811Y-88110785D01*
X152752188Y-88133424D01*
X152765802Y-88153798D01*
X152783129Y-88171125D01*
X152803503Y-88184739D01*
X152826131Y-88194112D01*
X152838879Y-88197979D01*
X152866055Y-88212505D01*
X152934600Y-88249143D01*
X153018501Y-88317999D01*
X153087357Y-88401900D01*
X153123995Y-88470445D01*
X153138521Y-88497621D01*
X153170027Y-88601485D01*
X153180666Y-88709500D01*
X153170027Y-88817515D01*
X153138521Y-88921379D01*
X153138519Y-88921382D01*
X153087357Y-89017100D01*
X153018501Y-89101001D01*
X152934600Y-89169856D01*
X152890807Y-89193264D01*
X152870437Y-89206875D01*
X152853110Y-89224202D01*
X152839496Y-89244576D01*
X152830119Y-89267215D01*
X152825338Y-89291248D01*
X152825338Y-89315752D01*
X152830118Y-89339786D01*
X152839495Y-89362424D01*
X152853109Y-89382799D01*
X152870436Y-89400126D01*
X152890810Y-89413740D01*
X152913449Y-89423117D01*
X152937482Y-89427898D01*
X152949735Y-89428500D01*
X153178000Y-89428500D01*
X153178000Y-90530500D01*
X151876000Y-90530500D01*
X151876000Y-89428500D01*
X152104265Y-89428500D01*
X152128651Y-89426098D01*
X152152100Y-89418985D01*
X152173711Y-89407434D01*
X152192653Y-89391889D01*
X152208198Y-89372947D01*
X152219749Y-89351336D01*
X152226862Y-89327887D01*
X152229264Y-89303501D01*
X152226862Y-89279115D01*
X152219749Y-89255666D01*
X152208198Y-89234055D01*
X152192653Y-89215113D01*
X152173711Y-89199568D01*
X152163198Y-89193267D01*
X152119400Y-89169856D01*
X152035499Y-89101001D01*
X151966643Y-89017100D01*
X151915481Y-88921382D01*
X151915479Y-88921379D01*
X151883973Y-88817515D01*
X151873334Y-88709500D01*
X151883973Y-88601485D01*
X151915479Y-88497621D01*
X151930005Y-88470445D01*
X151966643Y-88401900D01*
X152035499Y-88317999D01*
X152119400Y-88249143D01*
X152187945Y-88212505D01*
X152215121Y-88197979D01*
X152227869Y-88194112D01*
X152250496Y-88184740D01*
X152270870Y-88171126D01*
X152288197Y-88153799D01*
X152301811Y-88133425D01*
X152311188Y-88110786D01*
X152315969Y-88086753D01*
X152315969Y-88062249D01*
X152311189Y-88038215D01*
X152301812Y-88015576D01*
X152288198Y-87995202D01*
X152270871Y-87977875D01*
X152250497Y-87964261D01*
X152227869Y-87954888D01*
X152215121Y-87951021D01*
X152187945Y-87936495D01*
X152119400Y-87899857D01*
X152035499Y-87831001D01*
X151966643Y-87747100D01*
X151915481Y-87651382D01*
X151915479Y-87651379D01*
X151883973Y-87547515D01*
X151873334Y-87439500D01*
X151883973Y-87331485D01*
X151915479Y-87227621D01*
X151930005Y-87200445D01*
X151966643Y-87131900D01*
X152035499Y-87047999D01*
X152119400Y-86979143D01*
X152187945Y-86942505D01*
X152215121Y-86927979D01*
X152227869Y-86924112D01*
X152250496Y-86914740D01*
X152270870Y-86901126D01*
X152288197Y-86883799D01*
X152301811Y-86863425D01*
X152311188Y-86840786D01*
X152315969Y-86816753D01*
X152315969Y-86792249D01*
X152311189Y-86768215D01*
X152301812Y-86745576D01*
X152288198Y-86725202D01*
X152270871Y-86707875D01*
X152250497Y-86694261D01*
X152227869Y-86684888D01*
X152215121Y-86681021D01*
X152187945Y-86666495D01*
X152119400Y-86629857D01*
X152035499Y-86561001D01*
X151966643Y-86477100D01*
X151915481Y-86381382D01*
X151915479Y-86381379D01*
X151883973Y-86277515D01*
X151873334Y-86169500D01*
X151883973Y-86061485D01*
X151915479Y-85957621D01*
X151930005Y-85930445D01*
X151966643Y-85861900D01*
X152035499Y-85777999D01*
X152119400Y-85709143D01*
X152187945Y-85672505D01*
X152215121Y-85657979D01*
X152227869Y-85654112D01*
X152250496Y-85644740D01*
X152270870Y-85631126D01*
X152288197Y-85613799D01*
X152301811Y-85593425D01*
X152311188Y-85570786D01*
X152315969Y-85546753D01*
X152315969Y-85522249D01*
X152311189Y-85498215D01*
X152301812Y-85475576D01*
X152288198Y-85455202D01*
X152270871Y-85437875D01*
X152250497Y-85424261D01*
X152227869Y-85414888D01*
X152215121Y-85411021D01*
X152187945Y-85396495D01*
X152119400Y-85359857D01*
X152035499Y-85291001D01*
X151966643Y-85207100D01*
X151915481Y-85111382D01*
X151915479Y-85111379D01*
X151883973Y-85007515D01*
X151873334Y-84899500D01*
X151883973Y-84791485D01*
X151915479Y-84687621D01*
X151930005Y-84660445D01*
X151966643Y-84591900D01*
X152035499Y-84507999D01*
X152119400Y-84439143D01*
X152187945Y-84402505D01*
X152215121Y-84387979D01*
X152318985Y-84356473D01*
X152399933Y-84348500D01*
X152654067Y-84348500D01*
X152735015Y-84356473D01*
G37*
G36*
X143750512Y-86797427D02*
G01*
X143899812Y-86827124D01*
X144063784Y-86895044D01*
X144211354Y-86993647D01*
X144336853Y-87119146D01*
X144435456Y-87266716D01*
X144503376Y-87430688D01*
X144538000Y-87604759D01*
X144538000Y-87782241D01*
X144503376Y-87956312D01*
X144435456Y-88120284D01*
X144336853Y-88267854D01*
X144211354Y-88393353D01*
X144063784Y-88491956D01*
X143899812Y-88559876D01*
X143750512Y-88589573D01*
X143725742Y-88594500D01*
X143548258Y-88594500D01*
X143523488Y-88589573D01*
X143374188Y-88559876D01*
X143210216Y-88491956D01*
X143062646Y-88393353D01*
X142937147Y-88267854D01*
X142838544Y-88120284D01*
X142770624Y-87956312D01*
X142736000Y-87782241D01*
X142736000Y-87604759D01*
X142770624Y-87430688D01*
X142838544Y-87266716D01*
X142937147Y-87119146D01*
X143062646Y-86993647D01*
X143210216Y-86895044D01*
X143374188Y-86827124D01*
X143523488Y-86797427D01*
X143548258Y-86792500D01*
X143725742Y-86792500D01*
X143750512Y-86797427D01*
G37*
G36*
X143750512Y-84257427D02*
G01*
X143899812Y-84287124D01*
X144063784Y-84355044D01*
X144211354Y-84453647D01*
X144336853Y-84579146D01*
X144435456Y-84726716D01*
X144503376Y-84890688D01*
X144538000Y-85064759D01*
X144538000Y-85242241D01*
X144503376Y-85416312D01*
X144435456Y-85580284D01*
X144336853Y-85727854D01*
X144211354Y-85853353D01*
X144063784Y-85951956D01*
X143899812Y-86019876D01*
X143750512Y-86049573D01*
X143725742Y-86054500D01*
X143548258Y-86054500D01*
X143523488Y-86049573D01*
X143374188Y-86019876D01*
X143210216Y-85951956D01*
X143062646Y-85853353D01*
X142937147Y-85727854D01*
X142838544Y-85580284D01*
X142770624Y-85416312D01*
X142736000Y-85242241D01*
X142736000Y-85064759D01*
X142770624Y-84890688D01*
X142838544Y-84726716D01*
X142937147Y-84579146D01*
X143062646Y-84453647D01*
X143210216Y-84355044D01*
X143374188Y-84287124D01*
X143523488Y-84257427D01*
X143548258Y-84252500D01*
X143725742Y-84252500D01*
X143750512Y-84257427D01*
G37*
G36*
X143750512Y-81717427D02*
G01*
X143899812Y-81747124D01*
X144063784Y-81815044D01*
X144211354Y-81913647D01*
X144336853Y-82039146D01*
X144435456Y-82186716D01*
X144503376Y-82350688D01*
X144538000Y-82524759D01*
X144538000Y-82702241D01*
X144503376Y-82876312D01*
X144435456Y-83040284D01*
X144336853Y-83187854D01*
X144211354Y-83313353D01*
X144063784Y-83411956D01*
X143899812Y-83479876D01*
X143750512Y-83509573D01*
X143725742Y-83514500D01*
X143548258Y-83514500D01*
X143523488Y-83509573D01*
X143374188Y-83479876D01*
X143210216Y-83411956D01*
X143062646Y-83313353D01*
X142937147Y-83187854D01*
X142838544Y-83040284D01*
X142770624Y-82876312D01*
X142736000Y-82702241D01*
X142736000Y-82524759D01*
X142770624Y-82350688D01*
X142838544Y-82186716D01*
X142937147Y-82039146D01*
X143062646Y-81913647D01*
X143210216Y-81815044D01*
X143374188Y-81747124D01*
X143523488Y-81717427D01*
X143548258Y-81712500D01*
X143725742Y-81712500D01*
X143750512Y-81717427D01*
G37*
M02*
