G04 #@! TF.GenerationSoftware,KiCad,Pcbnew,5.1.5+dfsg1-2build2*
G04 #@! TF.CreationDate,2020-11-19T12:47:17+00:00*
G04 #@! TF.ProjectId,EncoderBoard_IG,456e636f-6465-4724-926f-6172645f4947,rev?*
G04 #@! TF.SameCoordinates,Original*
G04 #@! TF.FileFunction,Legend,Top*
G04 #@! TF.FilePolarity,Positive*
%FSLAX46Y46*%
G04 Gerber Fmt 4.6, Leading zero omitted, Abs format (unit mm)*
G04 Created by KiCad (PCBNEW 5.1.5+dfsg1-2build2) date 2020-11-19 12:47:17*
%MOMM*%
%LPD*%
G04 APERTURE LIST*
%ADD10C,0.120000*%
%ADD11C,0.150000*%
G04 APERTURE END LIST*
D10*
X144907000Y-94043500D02*
X143637000Y-94043500D01*
X144907000Y-92773500D02*
X144907000Y-94043500D01*
X142594071Y-82233500D02*
X142197000Y-82233500D01*
X142594071Y-82993500D02*
X142197000Y-82993500D01*
X133537000Y-82233500D02*
X139537000Y-82233500D01*
X133537000Y-82993500D02*
X133537000Y-82233500D01*
X139537000Y-82993500D02*
X133537000Y-82993500D01*
X142197000Y-83883500D02*
X139537000Y-83883500D01*
X142594071Y-84773500D02*
X142197000Y-84773500D01*
X142594071Y-85533500D02*
X142197000Y-85533500D01*
X133537000Y-84773500D02*
X139537000Y-84773500D01*
X133537000Y-85533500D02*
X133537000Y-84773500D01*
X139537000Y-85533500D02*
X133537000Y-85533500D01*
X142197000Y-86423500D02*
X139537000Y-86423500D01*
X142594071Y-87313500D02*
X142197000Y-87313500D01*
X142594071Y-88073500D02*
X142197000Y-88073500D01*
X133537000Y-87313500D02*
X139537000Y-87313500D01*
X133537000Y-88073500D02*
X133537000Y-87313500D01*
X139537000Y-88073500D02*
X133537000Y-88073500D01*
X142197000Y-88963500D02*
X139537000Y-88963500D01*
X142594071Y-89853500D02*
X142197000Y-89853500D01*
X142594071Y-90613500D02*
X142197000Y-90613500D01*
X133537000Y-89853500D02*
X139537000Y-89853500D01*
X133537000Y-90613500D02*
X133537000Y-89853500D01*
X139537000Y-90613500D02*
X133537000Y-90613500D01*
X142197000Y-91503500D02*
X139537000Y-91503500D01*
X142527000Y-92393500D02*
X142197000Y-92393500D01*
X142527000Y-93153500D02*
X142197000Y-93153500D01*
X139537000Y-92493500D02*
X133537000Y-92493500D01*
X139537000Y-92613500D02*
X133537000Y-92613500D01*
X139537000Y-92733500D02*
X133537000Y-92733500D01*
X139537000Y-92853500D02*
X133537000Y-92853500D01*
X139537000Y-92973500D02*
X133537000Y-92973500D01*
X139537000Y-93093500D02*
X133537000Y-93093500D01*
X133537000Y-92393500D02*
X139537000Y-92393500D01*
X133537000Y-93153500D02*
X133537000Y-92393500D01*
X139537000Y-93153500D02*
X133537000Y-93153500D01*
X139537000Y-94103500D02*
X142197000Y-94103500D01*
X139537000Y-81283500D02*
X139537000Y-94103500D01*
X142197000Y-81283500D02*
X139537000Y-81283500D01*
X142197000Y-94103500D02*
X142197000Y-81283500D01*
X153637000Y-90739500D02*
X152527000Y-90739500D01*
X153637000Y-89979500D02*
X153637000Y-90739500D01*
X151963529Y-89219500D02*
X151417000Y-89219500D01*
X153637000Y-89219500D02*
X153090471Y-89219500D01*
X151417000Y-89219500D02*
X151417000Y-84204500D01*
X153637000Y-89219500D02*
X153637000Y-84204500D01*
X152219470Y-84204500D02*
X151417000Y-84204500D01*
X153637000Y-84204500D02*
X152834530Y-84204500D01*
D11*
X138918666Y-94495880D02*
X138918666Y-95210166D01*
X138871047Y-95353023D01*
X138775809Y-95448261D01*
X138632952Y-95495880D01*
X138537714Y-95495880D01*
X139347238Y-94591119D02*
X139394857Y-94543500D01*
X139490095Y-94495880D01*
X139728190Y-94495880D01*
X139823428Y-94543500D01*
X139871047Y-94591119D01*
X139918666Y-94686357D01*
X139918666Y-94781595D01*
X139871047Y-94924452D01*
X139299619Y-95495880D01*
X139918666Y-95495880D01*
X152193666Y-91126880D02*
X152193666Y-91841166D01*
X152146047Y-91984023D01*
X152050809Y-92079261D01*
X151907952Y-92126880D01*
X151812714Y-92126880D01*
X153193666Y-92126880D02*
X152622238Y-92126880D01*
X152907952Y-92126880D02*
X152907952Y-91126880D01*
X152812714Y-91269738D01*
X152717476Y-91364976D01*
X152622238Y-91412595D01*
M02*
