M48
; DRILL file {KiCad 5.1.5+dfsg1-2build2} date Thu 19 Nov 2020 11:24:55 GMT
; FORMAT={-:-/ absolute / inch / decimal}
; #@! TF.CreationDate,2020-11-19T11:24:55+00:00
; #@! TF.GenerationSoftware,Kicad,Pcbnew,5.1.5+dfsg1-2build2
; #@! TF.FileFunction,Plated,1,2,PTH
FMAT,2
INCH
T1C0.0280
T2C0.0315
T3C0.0394
T4C0.0598
%
G90
G05
T1
X5.1Y-3.65
X5.3008Y-3.713
T2
X5.05Y-4.85
X5.45Y-4.85
X3.3Y-4.35
X3.3Y-4.45
X3.3Y-4.55
X3.3Y-4.65
X3.3Y-4.75
X3.3Y-4.85
X3.3Y-4.95
X3.3Y-5.05
X3.8Y-4.35
X3.8Y-4.45
X3.8Y-4.55
X3.8Y-4.65
X3.8Y-4.75
X3.8Y-4.85
X3.8Y-4.95
X3.8Y-5.05
X3.75Y-3.71
X3.75Y-4.11
X3.59Y-3.71
X3.59Y-4.11
X3.43Y-3.71
X3.43Y-4.11
X4.1Y-3.65
X4.1Y-3.75
X4.1Y-3.85
X4.1Y-3.95
X4.1Y-4.05
X4.1Y-4.15
X4.1Y-4.25
X4.1Y-4.35
X4.1Y-4.45
X4.1Y-4.55
X4.1Y-4.65
X4.1Y-4.75
X4.1Y-4.85
X4.1Y-4.95
X4.1Y-5.05
X4.7Y-3.65
X4.7Y-3.75
X4.7Y-3.85
X4.7Y-3.95
X4.7Y-4.05
X4.7Y-4.15
X4.7Y-4.25
X4.7Y-4.35
X4.7Y-4.45
X4.7Y-4.55
X4.7Y-4.65
X4.7Y-4.75
X4.7Y-4.85
X4.7Y-4.95
X4.7Y-5.05
X5.5Y-3.95
X5.5Y-4.0484
T3
X5.2Y-4.65
X5.3Y-4.65
X5.4Y-4.65
X4.9Y-4.25
X5.0Y-4.25
X5.85Y-4.55
X5.85Y-4.65
X5.85Y-4.75
X3.05Y-4.55
X3.05Y-4.65
X3.05Y-4.75
X3.05Y-4.85
X3.07Y-3.72
X3.07Y-3.82
X3.07Y-3.92
X3.07Y-4.02
X3.07Y-4.12
X3.44Y-3.54
X3.54Y-3.54
X3.64Y-3.54
X3.74Y-3.54
X4.9Y-4.05
X5.0Y-4.05
X4.95Y-5.05
X5.05Y-5.05
X5.2Y-4.4
X5.3Y-4.4
X5.4Y-4.4
T4
X5.85Y-3.65
X5.85Y-3.85
T3
G00X5.65Y-4.3294
M15
G01X5.65Y-4.2506
M16
G05
G00X5.8075Y-4.105
M15
G01X5.7287Y-4.105
M16
G05
G00X5.8862Y-4.3294
M15
G01X5.8862Y-4.2506
M16
G05
T0
M30
