G04 #@! TF.GenerationSoftware,KiCad,Pcbnew,5.1.5+dfsg1-2build2*
G04 #@! TF.CreationDate,2020-11-19T11:24:51+00:00*
G04 #@! TF.ProjectId,PIDController,50494443-6f6e-4747-926f-6c6c65722e6b,rev?*
G04 #@! TF.SameCoordinates,Original*
G04 #@! TF.FileFunction,Legend,Top*
G04 #@! TF.FilePolarity,Positive*
%FSLAX46Y46*%
G04 Gerber Fmt 4.6, Leading zero omitted, Abs format (unit mm)*
G04 Created by KiCad (PCBNEW 5.1.5+dfsg1-2build2) date 2020-11-19 11:24:51*
%MOMM*%
%LPD*%
G04 APERTURE LIST*
%ADD10C,0.150000*%
%ADD11C,0.120000*%
G04 APERTURE END LIST*
D10*
X130620380Y-133040380D02*
X130620380Y-132040380D01*
X131001333Y-132040380D01*
X131096571Y-132088000D01*
X131144190Y-132135619D01*
X131191809Y-132230857D01*
X131191809Y-132373714D01*
X131144190Y-132468952D01*
X131096571Y-132516571D01*
X131001333Y-132564190D01*
X130620380Y-132564190D01*
X131620380Y-133040380D02*
X131620380Y-132040380D01*
X132096571Y-133040380D02*
X132096571Y-132040380D01*
X132334666Y-132040380D01*
X132477523Y-132088000D01*
X132572761Y-132183238D01*
X132620380Y-132278476D01*
X132668000Y-132468952D01*
X132668000Y-132611809D01*
X132620380Y-132802285D01*
X132572761Y-132897523D01*
X132477523Y-132992761D01*
X132334666Y-133040380D01*
X132096571Y-133040380D01*
X134429904Y-132945142D02*
X134382285Y-132992761D01*
X134239428Y-133040380D01*
X134144190Y-133040380D01*
X134001333Y-132992761D01*
X133906095Y-132897523D01*
X133858476Y-132802285D01*
X133810857Y-132611809D01*
X133810857Y-132468952D01*
X133858476Y-132278476D01*
X133906095Y-132183238D01*
X134001333Y-132088000D01*
X134144190Y-132040380D01*
X134239428Y-132040380D01*
X134382285Y-132088000D01*
X134429904Y-132135619D01*
X135001333Y-133040380D02*
X134906095Y-132992761D01*
X134858476Y-132945142D01*
X134810857Y-132849904D01*
X134810857Y-132564190D01*
X134858476Y-132468952D01*
X134906095Y-132421333D01*
X135001333Y-132373714D01*
X135144190Y-132373714D01*
X135239428Y-132421333D01*
X135287047Y-132468952D01*
X135334666Y-132564190D01*
X135334666Y-132849904D01*
X135287047Y-132945142D01*
X135239428Y-132992761D01*
X135144190Y-133040380D01*
X135001333Y-133040380D01*
X135763238Y-132373714D02*
X135763238Y-133040380D01*
X135763238Y-132468952D02*
X135810857Y-132421333D01*
X135906095Y-132373714D01*
X136048952Y-132373714D01*
X136144190Y-132421333D01*
X136191809Y-132516571D01*
X136191809Y-133040380D01*
X136525142Y-132373714D02*
X136906095Y-132373714D01*
X136668000Y-132040380D02*
X136668000Y-132897523D01*
X136715619Y-132992761D01*
X136810857Y-133040380D01*
X136906095Y-133040380D01*
X137239428Y-133040380D02*
X137239428Y-132373714D01*
X137239428Y-132564190D02*
X137287047Y-132468952D01*
X137334666Y-132421333D01*
X137429904Y-132373714D01*
X137525142Y-132373714D01*
X138001333Y-133040380D02*
X137906095Y-132992761D01*
X137858476Y-132945142D01*
X137810857Y-132849904D01*
X137810857Y-132564190D01*
X137858476Y-132468952D01*
X137906095Y-132421333D01*
X138001333Y-132373714D01*
X138144190Y-132373714D01*
X138239428Y-132421333D01*
X138287047Y-132468952D01*
X138334666Y-132564190D01*
X138334666Y-132849904D01*
X138287047Y-132945142D01*
X138239428Y-132992761D01*
X138144190Y-133040380D01*
X138001333Y-133040380D01*
X138906095Y-133040380D02*
X138810857Y-132992761D01*
X138763238Y-132897523D01*
X138763238Y-132040380D01*
X139429904Y-133040380D02*
X139334666Y-132992761D01*
X139287047Y-132897523D01*
X139287047Y-132040380D01*
X140191809Y-132992761D02*
X140096571Y-133040380D01*
X139906095Y-133040380D01*
X139810857Y-132992761D01*
X139763238Y-132897523D01*
X139763238Y-132516571D01*
X139810857Y-132421333D01*
X139906095Y-132373714D01*
X140096571Y-132373714D01*
X140191809Y-132421333D01*
X140239428Y-132516571D01*
X140239428Y-132611809D01*
X139763238Y-132707047D01*
X140668000Y-133040380D02*
X140668000Y-132373714D01*
X140668000Y-132564190D02*
X140715619Y-132468952D01*
X140763238Y-132421333D01*
X140858476Y-132373714D01*
X140953714Y-132373714D01*
X141953714Y-132373714D02*
X142191809Y-133040380D01*
X142429904Y-132373714D01*
X143334666Y-133040380D02*
X142763238Y-133040380D01*
X143048952Y-133040380D02*
X143048952Y-132040380D01*
X142953714Y-132183238D01*
X142858476Y-132278476D01*
X142763238Y-132326095D01*
X143763238Y-132945142D02*
X143810857Y-132992761D01*
X143763238Y-133040380D01*
X143715619Y-132992761D01*
X143763238Y-132945142D01*
X143763238Y-133040380D01*
X144429904Y-132040380D02*
X144525142Y-132040380D01*
X144620380Y-132088000D01*
X144668000Y-132135619D01*
X144715619Y-132230857D01*
X144763238Y-132421333D01*
X144763238Y-132659428D01*
X144715619Y-132849904D01*
X144668000Y-132945142D01*
X144620380Y-132992761D01*
X144525142Y-133040380D01*
X144429904Y-133040380D01*
X144334666Y-132992761D01*
X144287047Y-132945142D01*
X144239428Y-132849904D01*
X144191809Y-132659428D01*
X144191809Y-132421333D01*
X144239428Y-132230857D01*
X144287047Y-132135619D01*
X144334666Y-132088000D01*
X144429904Y-132040380D01*
D11*
X85752000Y-102584000D02*
X88492000Y-102584000D01*
X88492000Y-102584000D02*
X88492000Y-96044000D01*
X88492000Y-96044000D02*
X85752000Y-96044000D01*
X85752000Y-96044000D02*
X85752000Y-102584000D01*
X87122000Y-103354000D02*
X87122000Y-102584000D01*
X87122000Y-95274000D02*
X87122000Y-96044000D01*
X105410000Y-93980000D02*
X105410000Y-91440000D01*
X105410000Y-91440000D02*
X102740000Y-91440000D01*
X102740000Y-93980000D02*
X102740000Y-132210000D01*
X102740000Y-88770000D02*
X102740000Y-91440000D01*
X118110000Y-91440000D02*
X120780000Y-91440000D01*
X118110000Y-91440000D02*
X118110000Y-129540000D01*
X118110000Y-129540000D02*
X120780000Y-129540000D01*
X105410000Y-93980000D02*
X102740000Y-93980000D01*
X105410000Y-93980000D02*
X105410000Y-129540000D01*
X105410000Y-129540000D02*
X102740000Y-129540000D01*
X102740000Y-132210000D02*
X120780000Y-132210000D01*
X120780000Y-132210000D02*
X120780000Y-88770000D01*
X120780000Y-88770000D02*
X102740000Y-88770000D01*
X152400000Y-100330000D02*
X152400000Y-90170000D01*
X144780000Y-100330000D02*
X152400000Y-100330000D01*
X144780000Y-90170000D02*
X144780000Y-100330000D01*
X152400000Y-90170000D02*
X144780000Y-90170000D01*
X151130000Y-90170000D02*
X151130000Y-100330000D01*
X95250000Y-109090000D02*
X95250000Y-129670000D01*
X85090000Y-111760000D02*
X85090000Y-129670000D01*
X83820000Y-109090000D02*
X82420000Y-109090000D01*
X82420000Y-109090000D02*
X82420000Y-110490000D01*
X85090000Y-109090000D02*
X85090000Y-111760000D01*
X85090000Y-111760000D02*
X82420000Y-111760000D01*
X82420000Y-111760000D02*
X82420000Y-129670000D01*
X82420000Y-129670000D02*
X97920000Y-129670000D01*
X97920000Y-129670000D02*
X97920000Y-109090000D01*
X97920000Y-109090000D02*
X85090000Y-109090000D01*
X127790000Y-95560000D02*
X136390000Y-95560000D01*
X136390000Y-91460000D02*
X136390000Y-95560000D01*
X127790000Y-91460000D02*
X127790000Y-95560000D01*
X127790000Y-91460000D02*
X136390000Y-91460000D01*
X79308000Y-93158000D02*
X76648000Y-93158000D01*
X79308000Y-103378000D02*
X79308000Y-93158000D01*
X76648000Y-103378000D02*
X76648000Y-93158000D01*
X79308000Y-103378000D02*
X76648000Y-103378000D01*
X79308000Y-104648000D02*
X79308000Y-105978000D01*
X79308000Y-105978000D02*
X77978000Y-105978000D01*
X86046000Y-88586000D02*
X86046000Y-91246000D01*
X93726000Y-88586000D02*
X86046000Y-88586000D01*
X93726000Y-91246000D02*
X86046000Y-91246000D01*
X93726000Y-88586000D02*
X93726000Y-91246000D01*
X94996000Y-88586000D02*
X96326000Y-88586000D01*
X96326000Y-88586000D02*
X96326000Y-89916000D01*
X149920000Y-114240000D02*
X147260000Y-114240000D01*
X149920000Y-119380000D02*
X149920000Y-114240000D01*
X147260000Y-119380000D02*
X147260000Y-114240000D01*
X149920000Y-119380000D02*
X147260000Y-119380000D01*
X149920000Y-120650000D02*
X149920000Y-121980000D01*
X149920000Y-121980000D02*
X148590000Y-121980000D01*
X130750000Y-113090000D02*
X130750000Y-111760000D01*
X132080000Y-113090000D02*
X130750000Y-113090000D01*
X133350000Y-113090000D02*
X133350000Y-110430000D01*
X133350000Y-110430000D02*
X138490000Y-110430000D01*
X133350000Y-113090000D02*
X138490000Y-113090000D01*
X138490000Y-113090000D02*
X138490000Y-110430000D01*
X138490000Y-119440000D02*
X138490000Y-116780000D01*
X133350000Y-119440000D02*
X138490000Y-119440000D01*
X133350000Y-116780000D02*
X138490000Y-116780000D01*
X133350000Y-119440000D02*
X133350000Y-116780000D01*
X132080000Y-119440000D02*
X130750000Y-119440000D01*
X130750000Y-119440000D02*
X130750000Y-118110000D01*
X78800000Y-124520000D02*
X77470000Y-124520000D01*
X78800000Y-123190000D02*
X78800000Y-124520000D01*
X78800000Y-121920000D02*
X76140000Y-121920000D01*
X76140000Y-121920000D02*
X76140000Y-114240000D01*
X78800000Y-121920000D02*
X78800000Y-114240000D01*
X78800000Y-114240000D02*
X76140000Y-114240000D01*
X128330000Y-104200000D02*
X128330000Y-101540000D01*
X125730000Y-104200000D02*
X128330000Y-104200000D01*
X125730000Y-101540000D02*
X128330000Y-101540000D01*
X125730000Y-104200000D02*
X125730000Y-101540000D01*
X124460000Y-104200000D02*
X123130000Y-104200000D01*
X123130000Y-104200000D02*
X123130000Y-102870000D01*
X123130000Y-109280000D02*
X123130000Y-107950000D01*
X124460000Y-109280000D02*
X123130000Y-109280000D01*
X125730000Y-109280000D02*
X125730000Y-106620000D01*
X125730000Y-106620000D02*
X128330000Y-106620000D01*
X125730000Y-109280000D02*
X128330000Y-109280000D01*
X128330000Y-109280000D02*
X128330000Y-106620000D01*
X129600000Y-129600000D02*
X129600000Y-126940000D01*
X127000000Y-129600000D02*
X129600000Y-129600000D01*
X127000000Y-126940000D02*
X129600000Y-126940000D01*
X127000000Y-129600000D02*
X127000000Y-126940000D01*
X125730000Y-129600000D02*
X124400000Y-129600000D01*
X124400000Y-129600000D02*
X124400000Y-128270000D01*
X130080000Y-121820000D02*
X130080000Y-124560000D01*
X130080000Y-124560000D02*
X136620000Y-124560000D01*
X136620000Y-124560000D02*
X136620000Y-121820000D01*
X136620000Y-121820000D02*
X130080000Y-121820000D01*
X129310000Y-123190000D02*
X130080000Y-123190000D01*
X137390000Y-123190000D02*
X136620000Y-123190000D01*
X142970000Y-101580000D02*
G75*
G03X142970000Y-101580000I-3270000J0D01*
G01*
X142930000Y-101580000D02*
X136470000Y-101580000D01*
X142930000Y-101620000D02*
X136470000Y-101620000D01*
X142930000Y-101660000D02*
X136470000Y-101660000D01*
X142928000Y-101700000D02*
X136472000Y-101700000D01*
X142927000Y-101740000D02*
X136473000Y-101740000D01*
X142924000Y-101780000D02*
X136476000Y-101780000D01*
X142922000Y-101820000D02*
X140740000Y-101820000D01*
X138660000Y-101820000D02*
X136478000Y-101820000D01*
X142918000Y-101860000D02*
X140740000Y-101860000D01*
X138660000Y-101860000D02*
X136482000Y-101860000D01*
X142915000Y-101900000D02*
X140740000Y-101900000D01*
X138660000Y-101900000D02*
X136485000Y-101900000D01*
X142911000Y-101940000D02*
X140740000Y-101940000D01*
X138660000Y-101940000D02*
X136489000Y-101940000D01*
X142906000Y-101980000D02*
X140740000Y-101980000D01*
X138660000Y-101980000D02*
X136494000Y-101980000D01*
X142901000Y-102020000D02*
X140740000Y-102020000D01*
X138660000Y-102020000D02*
X136499000Y-102020000D01*
X142895000Y-102060000D02*
X140740000Y-102060000D01*
X138660000Y-102060000D02*
X136505000Y-102060000D01*
X142889000Y-102100000D02*
X140740000Y-102100000D01*
X138660000Y-102100000D02*
X136511000Y-102100000D01*
X142882000Y-102140000D02*
X140740000Y-102140000D01*
X138660000Y-102140000D02*
X136518000Y-102140000D01*
X142875000Y-102180000D02*
X140740000Y-102180000D01*
X138660000Y-102180000D02*
X136525000Y-102180000D01*
X142867000Y-102220000D02*
X140740000Y-102220000D01*
X138660000Y-102220000D02*
X136533000Y-102220000D01*
X142859000Y-102260000D02*
X140740000Y-102260000D01*
X138660000Y-102260000D02*
X136541000Y-102260000D01*
X142850000Y-102301000D02*
X140740000Y-102301000D01*
X138660000Y-102301000D02*
X136550000Y-102301000D01*
X142841000Y-102341000D02*
X140740000Y-102341000D01*
X138660000Y-102341000D02*
X136559000Y-102341000D01*
X142831000Y-102381000D02*
X140740000Y-102381000D01*
X138660000Y-102381000D02*
X136569000Y-102381000D01*
X142821000Y-102421000D02*
X140740000Y-102421000D01*
X138660000Y-102421000D02*
X136579000Y-102421000D01*
X142810000Y-102461000D02*
X140740000Y-102461000D01*
X138660000Y-102461000D02*
X136590000Y-102461000D01*
X142798000Y-102501000D02*
X140740000Y-102501000D01*
X138660000Y-102501000D02*
X136602000Y-102501000D01*
X142786000Y-102541000D02*
X140740000Y-102541000D01*
X138660000Y-102541000D02*
X136614000Y-102541000D01*
X142774000Y-102581000D02*
X140740000Y-102581000D01*
X138660000Y-102581000D02*
X136626000Y-102581000D01*
X142761000Y-102621000D02*
X140740000Y-102621000D01*
X138660000Y-102621000D02*
X136639000Y-102621000D01*
X142747000Y-102661000D02*
X140740000Y-102661000D01*
X138660000Y-102661000D02*
X136653000Y-102661000D01*
X142733000Y-102701000D02*
X140740000Y-102701000D01*
X138660000Y-102701000D02*
X136667000Y-102701000D01*
X142718000Y-102741000D02*
X140740000Y-102741000D01*
X138660000Y-102741000D02*
X136682000Y-102741000D01*
X142702000Y-102781000D02*
X140740000Y-102781000D01*
X138660000Y-102781000D02*
X136698000Y-102781000D01*
X142686000Y-102821000D02*
X140740000Y-102821000D01*
X138660000Y-102821000D02*
X136714000Y-102821000D01*
X142670000Y-102861000D02*
X140740000Y-102861000D01*
X138660000Y-102861000D02*
X136730000Y-102861000D01*
X142652000Y-102901000D02*
X140740000Y-102901000D01*
X138660000Y-102901000D02*
X136748000Y-102901000D01*
X142634000Y-102941000D02*
X140740000Y-102941000D01*
X138660000Y-102941000D02*
X136766000Y-102941000D01*
X142616000Y-102981000D02*
X140740000Y-102981000D01*
X138660000Y-102981000D02*
X136784000Y-102981000D01*
X142596000Y-103021000D02*
X140740000Y-103021000D01*
X138660000Y-103021000D02*
X136804000Y-103021000D01*
X142576000Y-103061000D02*
X140740000Y-103061000D01*
X138660000Y-103061000D02*
X136824000Y-103061000D01*
X142556000Y-103101000D02*
X140740000Y-103101000D01*
X138660000Y-103101000D02*
X136844000Y-103101000D01*
X142534000Y-103141000D02*
X140740000Y-103141000D01*
X138660000Y-103141000D02*
X136866000Y-103141000D01*
X142512000Y-103181000D02*
X140740000Y-103181000D01*
X138660000Y-103181000D02*
X136888000Y-103181000D01*
X142490000Y-103221000D02*
X140740000Y-103221000D01*
X138660000Y-103221000D02*
X136910000Y-103221000D01*
X142466000Y-103261000D02*
X140740000Y-103261000D01*
X138660000Y-103261000D02*
X136934000Y-103261000D01*
X142442000Y-103301000D02*
X140740000Y-103301000D01*
X138660000Y-103301000D02*
X136958000Y-103301000D01*
X142416000Y-103341000D02*
X140740000Y-103341000D01*
X138660000Y-103341000D02*
X136984000Y-103341000D01*
X142390000Y-103381000D02*
X140740000Y-103381000D01*
X138660000Y-103381000D02*
X137010000Y-103381000D01*
X142364000Y-103421000D02*
X140740000Y-103421000D01*
X138660000Y-103421000D02*
X137036000Y-103421000D01*
X142336000Y-103461000D02*
X140740000Y-103461000D01*
X138660000Y-103461000D02*
X137064000Y-103461000D01*
X142307000Y-103501000D02*
X140740000Y-103501000D01*
X138660000Y-103501000D02*
X137093000Y-103501000D01*
X142278000Y-103541000D02*
X140740000Y-103541000D01*
X138660000Y-103541000D02*
X137122000Y-103541000D01*
X142248000Y-103581000D02*
X140740000Y-103581000D01*
X138660000Y-103581000D02*
X137152000Y-103581000D01*
X142216000Y-103621000D02*
X140740000Y-103621000D01*
X138660000Y-103621000D02*
X137184000Y-103621000D01*
X142184000Y-103661000D02*
X140740000Y-103661000D01*
X138660000Y-103661000D02*
X137216000Y-103661000D01*
X142150000Y-103701000D02*
X140740000Y-103701000D01*
X138660000Y-103701000D02*
X137250000Y-103701000D01*
X142116000Y-103741000D02*
X140740000Y-103741000D01*
X138660000Y-103741000D02*
X137284000Y-103741000D01*
X142080000Y-103781000D02*
X140740000Y-103781000D01*
X138660000Y-103781000D02*
X137320000Y-103781000D01*
X142043000Y-103821000D02*
X140740000Y-103821000D01*
X138660000Y-103821000D02*
X137357000Y-103821000D01*
X142005000Y-103861000D02*
X140740000Y-103861000D01*
X138660000Y-103861000D02*
X137395000Y-103861000D01*
X141965000Y-103901000D02*
X137435000Y-103901000D01*
X141924000Y-103941000D02*
X137476000Y-103941000D01*
X141882000Y-103981000D02*
X137518000Y-103981000D01*
X141837000Y-104021000D02*
X137563000Y-104021000D01*
X141792000Y-104061000D02*
X137608000Y-104061000D01*
X141744000Y-104101000D02*
X137656000Y-104101000D01*
X141695000Y-104141000D02*
X137705000Y-104141000D01*
X141644000Y-104181000D02*
X137756000Y-104181000D01*
X141590000Y-104221000D02*
X137810000Y-104221000D01*
X141534000Y-104261000D02*
X137866000Y-104261000D01*
X141476000Y-104301000D02*
X137924000Y-104301000D01*
X141414000Y-104341000D02*
X137986000Y-104341000D01*
X141350000Y-104381000D02*
X138050000Y-104381000D01*
X141281000Y-104421000D02*
X138119000Y-104421000D01*
X141209000Y-104461000D02*
X138191000Y-104461000D01*
X141132000Y-104501000D02*
X138268000Y-104501000D01*
X141050000Y-104541000D02*
X138350000Y-104541000D01*
X140962000Y-104581000D02*
X138438000Y-104581000D01*
X140865000Y-104621000D02*
X138535000Y-104621000D01*
X140759000Y-104661000D02*
X138641000Y-104661000D01*
X140640000Y-104701000D02*
X138760000Y-104701000D01*
X140502000Y-104741000D02*
X138898000Y-104741000D01*
X140333000Y-104781000D02*
X139067000Y-104781000D01*
X140102000Y-104821000D02*
X139298000Y-104821000D01*
X141539000Y-98079759D02*
X141539000Y-98709759D01*
X141854000Y-98394759D02*
X141224000Y-98394759D01*
X142410000Y-112716000D02*
X142410000Y-113766000D01*
X143460000Y-113766000D02*
X142410000Y-113766000D01*
X148510000Y-104366000D02*
X157310000Y-104366000D01*
X157310000Y-104366000D02*
X157310000Y-113566000D01*
X142610000Y-107066000D02*
X142610000Y-104366000D01*
X142610000Y-104366000D02*
X144510000Y-104366000D01*
X157310000Y-113566000D02*
X142610000Y-113566000D01*
X142610000Y-113566000D02*
X142610000Y-110966000D01*
X93880000Y-102584000D02*
X96620000Y-102584000D01*
X96620000Y-102584000D02*
X96620000Y-96044000D01*
X96620000Y-96044000D02*
X93880000Y-96044000D01*
X93880000Y-96044000D02*
X93880000Y-102584000D01*
X95250000Y-103354000D02*
X95250000Y-102584000D01*
X95250000Y-95274000D02*
X95250000Y-96044000D01*
X91186000Y-95274000D02*
X91186000Y-96044000D01*
X91186000Y-103354000D02*
X91186000Y-102584000D01*
X89816000Y-96044000D02*
X89816000Y-102584000D01*
X92556000Y-96044000D02*
X89816000Y-96044000D01*
X92556000Y-102584000D02*
X92556000Y-96044000D01*
X89816000Y-102584000D02*
X92556000Y-102584000D01*
D10*
X85204380Y-99480666D02*
X84728190Y-99814000D01*
X85204380Y-100052095D02*
X84204380Y-100052095D01*
X84204380Y-99671142D01*
X84252000Y-99575904D01*
X84299619Y-99528285D01*
X84394857Y-99480666D01*
X84537714Y-99480666D01*
X84632952Y-99528285D01*
X84680571Y-99575904D01*
X84728190Y-99671142D01*
X84728190Y-100052095D01*
X84537714Y-98623523D02*
X85204380Y-98623523D01*
X84156761Y-98861619D02*
X84871047Y-99099714D01*
X84871047Y-98480666D01*
X111045714Y-90336666D02*
X111521904Y-90336666D01*
X110950476Y-90622380D02*
X111283809Y-89622380D01*
X111617142Y-90622380D01*
X112474285Y-90622380D02*
X111902857Y-90622380D01*
X112188571Y-90622380D02*
X112188571Y-89622380D01*
X112093333Y-89765238D01*
X111998095Y-89860476D01*
X111902857Y-89908095D01*
X145502380Y-95583333D02*
X146216666Y-95583333D01*
X146359523Y-95630952D01*
X146454761Y-95726190D01*
X146502380Y-95869047D01*
X146502380Y-95964285D01*
X145502380Y-95202380D02*
X145502380Y-94583333D01*
X145883333Y-94916666D01*
X145883333Y-94773809D01*
X145930952Y-94678571D01*
X145978571Y-94630952D01*
X146073809Y-94583333D01*
X146311904Y-94583333D01*
X146407142Y-94630952D01*
X146454761Y-94678571D01*
X146502380Y-94773809D01*
X146502380Y-95059523D01*
X146454761Y-95154761D01*
X146407142Y-95202380D01*
X89455714Y-110656666D02*
X89931904Y-110656666D01*
X89360476Y-110942380D02*
X89693809Y-109942380D01*
X90027142Y-110942380D01*
X90312857Y-110037619D02*
X90360476Y-109990000D01*
X90455714Y-109942380D01*
X90693809Y-109942380D01*
X90789047Y-109990000D01*
X90836666Y-110037619D01*
X90884285Y-110132857D01*
X90884285Y-110228095D01*
X90836666Y-110370952D01*
X90265238Y-110942380D01*
X90884285Y-110942380D01*
X131746666Y-93908571D02*
X131413333Y-93908571D01*
X131413333Y-94432380D02*
X131413333Y-93432380D01*
X131889523Y-93432380D01*
X132794285Y-94432380D02*
X132222857Y-94432380D01*
X132508571Y-94432380D02*
X132508571Y-93432380D01*
X132413333Y-93575238D01*
X132318095Y-93670476D01*
X132222857Y-93718095D01*
X77644666Y-106430380D02*
X77644666Y-107144666D01*
X77597047Y-107287523D01*
X77501809Y-107382761D01*
X77358952Y-107430380D01*
X77263714Y-107430380D01*
X78073238Y-106525619D02*
X78120857Y-106478000D01*
X78216095Y-106430380D01*
X78454190Y-106430380D01*
X78549428Y-106478000D01*
X78597047Y-106525619D01*
X78644666Y-106620857D01*
X78644666Y-106716095D01*
X78597047Y-106858952D01*
X78025619Y-107430380D01*
X78644666Y-107430380D01*
X96778380Y-90249333D02*
X97492666Y-90249333D01*
X97635523Y-90296952D01*
X97730761Y-90392190D01*
X97778380Y-90535047D01*
X97778380Y-90630285D01*
X97111714Y-89344571D02*
X97778380Y-89344571D01*
X96730761Y-89582666D02*
X97445047Y-89820761D01*
X97445047Y-89201714D01*
X148256666Y-122432380D02*
X148256666Y-123146666D01*
X148209047Y-123289523D01*
X148113809Y-123384761D01*
X147970952Y-123432380D01*
X147875714Y-123432380D01*
X149209047Y-122432380D02*
X148732857Y-122432380D01*
X148685238Y-122908571D01*
X148732857Y-122860952D01*
X148828095Y-122813333D01*
X149066190Y-122813333D01*
X149161428Y-122860952D01*
X149209047Y-122908571D01*
X149256666Y-123003809D01*
X149256666Y-123241904D01*
X149209047Y-123337142D01*
X149161428Y-123384761D01*
X149066190Y-123432380D01*
X148828095Y-123432380D01*
X148732857Y-123384761D01*
X148685238Y-123337142D01*
X129202380Y-112093333D02*
X129916666Y-112093333D01*
X130059523Y-112140952D01*
X130154761Y-112236190D01*
X130202380Y-112379047D01*
X130202380Y-112474285D01*
X129202380Y-111188571D02*
X129202380Y-111379047D01*
X129250000Y-111474285D01*
X129297619Y-111521904D01*
X129440476Y-111617142D01*
X129630952Y-111664761D01*
X130011904Y-111664761D01*
X130107142Y-111617142D01*
X130154761Y-111569523D01*
X130202380Y-111474285D01*
X130202380Y-111283809D01*
X130154761Y-111188571D01*
X130107142Y-111140952D01*
X130011904Y-111093333D01*
X129773809Y-111093333D01*
X129678571Y-111140952D01*
X129630952Y-111188571D01*
X129583333Y-111283809D01*
X129583333Y-111474285D01*
X129630952Y-111569523D01*
X129678571Y-111617142D01*
X129773809Y-111664761D01*
X129202380Y-118443333D02*
X129916666Y-118443333D01*
X130059523Y-118490952D01*
X130154761Y-118586190D01*
X130202380Y-118729047D01*
X130202380Y-118824285D01*
X129202380Y-118062380D02*
X129202380Y-117395714D01*
X130202380Y-117824285D01*
X77136666Y-124972380D02*
X77136666Y-125686666D01*
X77089047Y-125829523D01*
X76993809Y-125924761D01*
X76850952Y-125972380D01*
X76755714Y-125972380D01*
X77755714Y-125400952D02*
X77660476Y-125353333D01*
X77612857Y-125305714D01*
X77565238Y-125210476D01*
X77565238Y-125162857D01*
X77612857Y-125067619D01*
X77660476Y-125020000D01*
X77755714Y-124972380D01*
X77946190Y-124972380D01*
X78041428Y-125020000D01*
X78089047Y-125067619D01*
X78136666Y-125162857D01*
X78136666Y-125210476D01*
X78089047Y-125305714D01*
X78041428Y-125353333D01*
X77946190Y-125400952D01*
X77755714Y-125400952D01*
X77660476Y-125448571D01*
X77612857Y-125496190D01*
X77565238Y-125591428D01*
X77565238Y-125781904D01*
X77612857Y-125877142D01*
X77660476Y-125924761D01*
X77755714Y-125972380D01*
X77946190Y-125972380D01*
X78041428Y-125924761D01*
X78089047Y-125877142D01*
X78136666Y-125781904D01*
X78136666Y-125591428D01*
X78089047Y-125496190D01*
X78041428Y-125448571D01*
X77946190Y-125400952D01*
X121582380Y-103203333D02*
X122296666Y-103203333D01*
X122439523Y-103250952D01*
X122534761Y-103346190D01*
X122582380Y-103489047D01*
X122582380Y-103584285D01*
X122582380Y-102679523D02*
X122582380Y-102489047D01*
X122534761Y-102393809D01*
X122487142Y-102346190D01*
X122344285Y-102250952D01*
X122153809Y-102203333D01*
X121772857Y-102203333D01*
X121677619Y-102250952D01*
X121630000Y-102298571D01*
X121582380Y-102393809D01*
X121582380Y-102584285D01*
X121630000Y-102679523D01*
X121677619Y-102727142D01*
X121772857Y-102774761D01*
X122010952Y-102774761D01*
X122106190Y-102727142D01*
X122153809Y-102679523D01*
X122201428Y-102584285D01*
X122201428Y-102393809D01*
X122153809Y-102298571D01*
X122106190Y-102250952D01*
X122010952Y-102203333D01*
X121582380Y-108759523D02*
X122296666Y-108759523D01*
X122439523Y-108807142D01*
X122534761Y-108902380D01*
X122582380Y-109045238D01*
X122582380Y-109140476D01*
X122582380Y-107759523D02*
X122582380Y-108330952D01*
X122582380Y-108045238D02*
X121582380Y-108045238D01*
X121725238Y-108140476D01*
X121820476Y-108235714D01*
X121868095Y-108330952D01*
X121582380Y-107140476D02*
X121582380Y-107045238D01*
X121630000Y-106950000D01*
X121677619Y-106902380D01*
X121772857Y-106854761D01*
X121963333Y-106807142D01*
X122201428Y-106807142D01*
X122391904Y-106854761D01*
X122487142Y-106902380D01*
X122534761Y-106950000D01*
X122582380Y-107045238D01*
X122582380Y-107140476D01*
X122534761Y-107235714D01*
X122487142Y-107283333D01*
X122391904Y-107330952D01*
X122201428Y-107378571D01*
X121963333Y-107378571D01*
X121772857Y-107330952D01*
X121677619Y-107283333D01*
X121630000Y-107235714D01*
X121582380Y-107140476D01*
X122852380Y-129079523D02*
X123566666Y-129079523D01*
X123709523Y-129127142D01*
X123804761Y-129222380D01*
X123852380Y-129365238D01*
X123852380Y-129460476D01*
X123852380Y-128079523D02*
X123852380Y-128650952D01*
X123852380Y-128365238D02*
X122852380Y-128365238D01*
X122995238Y-128460476D01*
X123090476Y-128555714D01*
X123138095Y-128650952D01*
X123852380Y-127127142D02*
X123852380Y-127698571D01*
X123852380Y-127412857D02*
X122852380Y-127412857D01*
X122995238Y-127508095D01*
X123090476Y-127603333D01*
X123138095Y-127698571D01*
X133183333Y-123642380D02*
X132850000Y-123166190D01*
X132611904Y-123642380D02*
X132611904Y-122642380D01*
X132992857Y-122642380D01*
X133088095Y-122690000D01*
X133135714Y-122737619D01*
X133183333Y-122832857D01*
X133183333Y-122975714D01*
X133135714Y-123070952D01*
X133088095Y-123118571D01*
X132992857Y-123166190D01*
X132611904Y-123166190D01*
X134135714Y-123642380D02*
X133564285Y-123642380D01*
X133850000Y-123642380D02*
X133850000Y-122642380D01*
X133754761Y-122785238D01*
X133659523Y-122880476D01*
X133564285Y-122928095D01*
X144457142Y-101746666D02*
X144504761Y-101794285D01*
X144552380Y-101937142D01*
X144552380Y-102032380D01*
X144504761Y-102175238D01*
X144409523Y-102270476D01*
X144314285Y-102318095D01*
X144123809Y-102365714D01*
X143980952Y-102365714D01*
X143790476Y-102318095D01*
X143695238Y-102270476D01*
X143600000Y-102175238D01*
X143552380Y-102032380D01*
X143552380Y-101937142D01*
X143600000Y-101794285D01*
X143647619Y-101746666D01*
X144552380Y-100794285D02*
X144552380Y-101365714D01*
X144552380Y-101080000D02*
X143552380Y-101080000D01*
X143695238Y-101175238D01*
X143790476Y-101270476D01*
X143838095Y-101365714D01*
X155114666Y-108418380D02*
X155114666Y-109132666D01*
X155067047Y-109275523D01*
X154971809Y-109370761D01*
X154828952Y-109418380D01*
X154733714Y-109418380D01*
X156114666Y-109418380D02*
X155543238Y-109418380D01*
X155828952Y-109418380D02*
X155828952Y-108418380D01*
X155733714Y-108561238D01*
X155638476Y-108656476D01*
X155543238Y-108704095D01*
X93332380Y-99480666D02*
X92856190Y-99814000D01*
X93332380Y-100052095D02*
X92332380Y-100052095D01*
X92332380Y-99671142D01*
X92380000Y-99575904D01*
X92427619Y-99528285D01*
X92522857Y-99480666D01*
X92665714Y-99480666D01*
X92760952Y-99528285D01*
X92808571Y-99575904D01*
X92856190Y-99671142D01*
X92856190Y-100052095D01*
X92427619Y-99099714D02*
X92380000Y-99052095D01*
X92332380Y-98956857D01*
X92332380Y-98718761D01*
X92380000Y-98623523D01*
X92427619Y-98575904D01*
X92522857Y-98528285D01*
X92618095Y-98528285D01*
X92760952Y-98575904D01*
X93332380Y-99147333D01*
X93332380Y-98528285D01*
X89268380Y-99480666D02*
X88792190Y-99814000D01*
X89268380Y-100052095D02*
X88268380Y-100052095D01*
X88268380Y-99671142D01*
X88316000Y-99575904D01*
X88363619Y-99528285D01*
X88458857Y-99480666D01*
X88601714Y-99480666D01*
X88696952Y-99528285D01*
X88744571Y-99575904D01*
X88792190Y-99671142D01*
X88792190Y-100052095D01*
X88268380Y-99147333D02*
X88268380Y-98528285D01*
X88649333Y-98861619D01*
X88649333Y-98718761D01*
X88696952Y-98623523D01*
X88744571Y-98575904D01*
X88839809Y-98528285D01*
X89077904Y-98528285D01*
X89173142Y-98575904D01*
X89220761Y-98623523D01*
X89268380Y-98718761D01*
X89268380Y-99004476D01*
X89220761Y-99099714D01*
X89173142Y-99147333D01*
M02*
