G04 #@! TF.GenerationSoftware,KiCad,Pcbnew,5.1.5+dfsg1-2build2*
G04 #@! TF.CreationDate,2020-11-19T11:24:52+00:00*
G04 #@! TF.ProjectId,PIDController,50494443-6f6e-4747-926f-6c6c65722e6b,rev?*
G04 #@! TF.SameCoordinates,Original*
G04 #@! TF.FileFunction,Soldermask,Bot*
G04 #@! TF.FilePolarity,Negative*
%FSLAX46Y46*%
G04 Gerber Fmt 4.6, Leading zero omitted, Abs format (unit mm)*
G04 Created by KiCad (PCBNEW 5.1.5+dfsg1-2build2) date 2020-11-19 11:24:52*
%MOMM*%
%LPD*%
G04 APERTURE LIST*
%ADD10C,0.100000*%
G04 APERTURE END LIST*
D10*
G36*
X128383512Y-127373927D02*
G01*
X128532812Y-127403624D01*
X128696784Y-127471544D01*
X128844354Y-127570147D01*
X128969853Y-127695646D01*
X129068456Y-127843216D01*
X129136376Y-128007188D01*
X129171000Y-128181259D01*
X129171000Y-128358741D01*
X129136376Y-128532812D01*
X129068456Y-128696784D01*
X128969853Y-128844354D01*
X128844354Y-128969853D01*
X128696784Y-129068456D01*
X128532812Y-129136376D01*
X128383512Y-129166073D01*
X128358742Y-129171000D01*
X128181258Y-129171000D01*
X128156488Y-129166073D01*
X128007188Y-129136376D01*
X127843216Y-129068456D01*
X127695646Y-128969853D01*
X127570147Y-128844354D01*
X127471544Y-128696784D01*
X127403624Y-128532812D01*
X127369000Y-128358741D01*
X127369000Y-128181259D01*
X127403624Y-128007188D01*
X127471544Y-127843216D01*
X127570147Y-127695646D01*
X127695646Y-127570147D01*
X127843216Y-127471544D01*
X128007188Y-127403624D01*
X128156488Y-127373927D01*
X128181258Y-127369000D01*
X128358742Y-127369000D01*
X128383512Y-127373927D01*
G37*
G36*
X126631000Y-129171000D02*
G01*
X124829000Y-129171000D01*
X124829000Y-127369000D01*
X126631000Y-127369000D01*
X126631000Y-129171000D01*
G37*
G36*
X119628228Y-127451703D02*
G01*
X119783100Y-127515853D01*
X119922481Y-127608985D01*
X120041015Y-127727519D01*
X120134147Y-127866900D01*
X120198297Y-128021772D01*
X120231000Y-128186184D01*
X120231000Y-128353816D01*
X120198297Y-128518228D01*
X120134147Y-128673100D01*
X120041015Y-128812481D01*
X119922481Y-128931015D01*
X119783100Y-129024147D01*
X119628228Y-129088297D01*
X119463816Y-129121000D01*
X119296184Y-129121000D01*
X119131772Y-129088297D01*
X118976900Y-129024147D01*
X118837519Y-128931015D01*
X118718985Y-128812481D01*
X118625853Y-128673100D01*
X118561703Y-128518228D01*
X118529000Y-128353816D01*
X118529000Y-128186184D01*
X118561703Y-128021772D01*
X118625853Y-127866900D01*
X118718985Y-127727519D01*
X118837519Y-127608985D01*
X118976900Y-127515853D01*
X119131772Y-127451703D01*
X119296184Y-127419000D01*
X119463816Y-127419000D01*
X119628228Y-127451703D01*
G37*
G36*
X104388228Y-127451703D02*
G01*
X104543100Y-127515853D01*
X104682481Y-127608985D01*
X104801015Y-127727519D01*
X104894147Y-127866900D01*
X104958297Y-128021772D01*
X104991000Y-128186184D01*
X104991000Y-128353816D01*
X104958297Y-128518228D01*
X104894147Y-128673100D01*
X104801015Y-128812481D01*
X104682481Y-128931015D01*
X104543100Y-129024147D01*
X104388228Y-129088297D01*
X104223816Y-129121000D01*
X104056184Y-129121000D01*
X103891772Y-129088297D01*
X103736900Y-129024147D01*
X103597519Y-128931015D01*
X103478985Y-128812481D01*
X103385853Y-128673100D01*
X103321703Y-128518228D01*
X103289000Y-128353816D01*
X103289000Y-128186184D01*
X103321703Y-128021772D01*
X103385853Y-127866900D01*
X103478985Y-127727519D01*
X103597519Y-127608985D01*
X103736900Y-127515853D01*
X103891772Y-127451703D01*
X104056184Y-127419000D01*
X104223816Y-127419000D01*
X104388228Y-127451703D01*
G37*
G36*
X96768228Y-127451703D02*
G01*
X96923100Y-127515853D01*
X97062481Y-127608985D01*
X97181015Y-127727519D01*
X97274147Y-127866900D01*
X97338297Y-128021772D01*
X97371000Y-128186184D01*
X97371000Y-128353816D01*
X97338297Y-128518228D01*
X97274147Y-128673100D01*
X97181015Y-128812481D01*
X97062481Y-128931015D01*
X96923100Y-129024147D01*
X96768228Y-129088297D01*
X96603816Y-129121000D01*
X96436184Y-129121000D01*
X96271772Y-129088297D01*
X96116900Y-129024147D01*
X95977519Y-128931015D01*
X95858985Y-128812481D01*
X95765853Y-128673100D01*
X95701703Y-128518228D01*
X95669000Y-128353816D01*
X95669000Y-128186184D01*
X95701703Y-128021772D01*
X95765853Y-127866900D01*
X95858985Y-127727519D01*
X95977519Y-127608985D01*
X96116900Y-127515853D01*
X96271772Y-127451703D01*
X96436184Y-127419000D01*
X96603816Y-127419000D01*
X96768228Y-127451703D01*
G37*
G36*
X84068228Y-127451703D02*
G01*
X84223100Y-127515853D01*
X84362481Y-127608985D01*
X84481015Y-127727519D01*
X84574147Y-127866900D01*
X84638297Y-128021772D01*
X84671000Y-128186184D01*
X84671000Y-128353816D01*
X84638297Y-128518228D01*
X84574147Y-128673100D01*
X84481015Y-128812481D01*
X84362481Y-128931015D01*
X84223100Y-129024147D01*
X84068228Y-129088297D01*
X83903816Y-129121000D01*
X83736184Y-129121000D01*
X83571772Y-129088297D01*
X83416900Y-129024147D01*
X83277519Y-128931015D01*
X83158985Y-128812481D01*
X83065853Y-128673100D01*
X83001703Y-128518228D01*
X82969000Y-128353816D01*
X82969000Y-128186184D01*
X83001703Y-128021772D01*
X83065853Y-127866900D01*
X83158985Y-127727519D01*
X83277519Y-127608985D01*
X83416900Y-127515853D01*
X83571772Y-127451703D01*
X83736184Y-127419000D01*
X83903816Y-127419000D01*
X84068228Y-127451703D01*
G37*
G36*
X104388228Y-124911703D02*
G01*
X104543100Y-124975853D01*
X104682481Y-125068985D01*
X104801015Y-125187519D01*
X104894147Y-125326900D01*
X104958297Y-125481772D01*
X104991000Y-125646184D01*
X104991000Y-125813816D01*
X104958297Y-125978228D01*
X104894147Y-126133100D01*
X104801015Y-126272481D01*
X104682481Y-126391015D01*
X104543100Y-126484147D01*
X104388228Y-126548297D01*
X104223816Y-126581000D01*
X104056184Y-126581000D01*
X103891772Y-126548297D01*
X103736900Y-126484147D01*
X103597519Y-126391015D01*
X103478985Y-126272481D01*
X103385853Y-126133100D01*
X103321703Y-125978228D01*
X103289000Y-125813816D01*
X103289000Y-125646184D01*
X103321703Y-125481772D01*
X103385853Y-125326900D01*
X103478985Y-125187519D01*
X103597519Y-125068985D01*
X103736900Y-124975853D01*
X103891772Y-124911703D01*
X104056184Y-124879000D01*
X104223816Y-124879000D01*
X104388228Y-124911703D01*
G37*
G36*
X96768228Y-124911703D02*
G01*
X96923100Y-124975853D01*
X97062481Y-125068985D01*
X97181015Y-125187519D01*
X97274147Y-125326900D01*
X97338297Y-125481772D01*
X97371000Y-125646184D01*
X97371000Y-125813816D01*
X97338297Y-125978228D01*
X97274147Y-126133100D01*
X97181015Y-126272481D01*
X97062481Y-126391015D01*
X96923100Y-126484147D01*
X96768228Y-126548297D01*
X96603816Y-126581000D01*
X96436184Y-126581000D01*
X96271772Y-126548297D01*
X96116900Y-126484147D01*
X95977519Y-126391015D01*
X95858985Y-126272481D01*
X95765853Y-126133100D01*
X95701703Y-125978228D01*
X95669000Y-125813816D01*
X95669000Y-125646184D01*
X95701703Y-125481772D01*
X95765853Y-125326900D01*
X95858985Y-125187519D01*
X95977519Y-125068985D01*
X96116900Y-124975853D01*
X96271772Y-124911703D01*
X96436184Y-124879000D01*
X96603816Y-124879000D01*
X96768228Y-124911703D01*
G37*
G36*
X119628228Y-124911703D02*
G01*
X119783100Y-124975853D01*
X119922481Y-125068985D01*
X120041015Y-125187519D01*
X120134147Y-125326900D01*
X120198297Y-125481772D01*
X120231000Y-125646184D01*
X120231000Y-125813816D01*
X120198297Y-125978228D01*
X120134147Y-126133100D01*
X120041015Y-126272481D01*
X119922481Y-126391015D01*
X119783100Y-126484147D01*
X119628228Y-126548297D01*
X119463816Y-126581000D01*
X119296184Y-126581000D01*
X119131772Y-126548297D01*
X118976900Y-126484147D01*
X118837519Y-126391015D01*
X118718985Y-126272481D01*
X118625853Y-126133100D01*
X118561703Y-125978228D01*
X118529000Y-125813816D01*
X118529000Y-125646184D01*
X118561703Y-125481772D01*
X118625853Y-125326900D01*
X118718985Y-125187519D01*
X118837519Y-125068985D01*
X118976900Y-124975853D01*
X119131772Y-124911703D01*
X119296184Y-124879000D01*
X119463816Y-124879000D01*
X119628228Y-124911703D01*
G37*
G36*
X84068228Y-124911703D02*
G01*
X84223100Y-124975853D01*
X84362481Y-125068985D01*
X84481015Y-125187519D01*
X84574147Y-125326900D01*
X84638297Y-125481772D01*
X84671000Y-125646184D01*
X84671000Y-125813816D01*
X84638297Y-125978228D01*
X84574147Y-126133100D01*
X84481015Y-126272481D01*
X84362481Y-126391015D01*
X84223100Y-126484147D01*
X84068228Y-126548297D01*
X83903816Y-126581000D01*
X83736184Y-126581000D01*
X83571772Y-126548297D01*
X83416900Y-126484147D01*
X83277519Y-126391015D01*
X83158985Y-126272481D01*
X83065853Y-126133100D01*
X83001703Y-125978228D01*
X82969000Y-125813816D01*
X82969000Y-125646184D01*
X83001703Y-125481772D01*
X83065853Y-125326900D01*
X83158985Y-125187519D01*
X83277519Y-125068985D01*
X83416900Y-124975853D01*
X83571772Y-124911703D01*
X83736184Y-124879000D01*
X83903816Y-124879000D01*
X84068228Y-124911703D01*
G37*
G36*
X78371000Y-124091000D02*
G01*
X76569000Y-124091000D01*
X76569000Y-122289000D01*
X78371000Y-122289000D01*
X78371000Y-124091000D01*
G37*
G36*
X119628228Y-122371703D02*
G01*
X119783100Y-122435853D01*
X119922481Y-122528985D01*
X120041015Y-122647519D01*
X120134147Y-122786900D01*
X120198297Y-122941772D01*
X120231000Y-123106184D01*
X120231000Y-123273816D01*
X120198297Y-123438228D01*
X120134147Y-123593100D01*
X120041015Y-123732481D01*
X119922481Y-123851015D01*
X119783100Y-123944147D01*
X119628228Y-124008297D01*
X119463816Y-124041000D01*
X119296184Y-124041000D01*
X119131772Y-124008297D01*
X118976900Y-123944147D01*
X118837519Y-123851015D01*
X118718985Y-123732481D01*
X118625853Y-123593100D01*
X118561703Y-123438228D01*
X118529000Y-123273816D01*
X118529000Y-123106184D01*
X118561703Y-122941772D01*
X118625853Y-122786900D01*
X118718985Y-122647519D01*
X118837519Y-122528985D01*
X118976900Y-122435853D01*
X119131772Y-122371703D01*
X119296184Y-122339000D01*
X119463816Y-122339000D01*
X119628228Y-122371703D01*
G37*
G36*
X128518228Y-122371703D02*
G01*
X128673100Y-122435853D01*
X128812481Y-122528985D01*
X128931015Y-122647519D01*
X129024147Y-122786900D01*
X129088297Y-122941772D01*
X129121000Y-123106184D01*
X129121000Y-123273816D01*
X129088297Y-123438228D01*
X129024147Y-123593100D01*
X128931015Y-123732481D01*
X128812481Y-123851015D01*
X128673100Y-123944147D01*
X128518228Y-124008297D01*
X128353816Y-124041000D01*
X128186184Y-124041000D01*
X128021772Y-124008297D01*
X127866900Y-123944147D01*
X127727519Y-123851015D01*
X127608985Y-123732481D01*
X127515853Y-123593100D01*
X127451703Y-123438228D01*
X127419000Y-123273816D01*
X127419000Y-123106184D01*
X127451703Y-122941772D01*
X127515853Y-122786900D01*
X127608985Y-122647519D01*
X127727519Y-122528985D01*
X127866900Y-122435853D01*
X128021772Y-122371703D01*
X128186184Y-122339000D01*
X128353816Y-122339000D01*
X128518228Y-122371703D01*
G37*
G36*
X138678228Y-122371703D02*
G01*
X138833100Y-122435853D01*
X138972481Y-122528985D01*
X139091015Y-122647519D01*
X139184147Y-122786900D01*
X139248297Y-122941772D01*
X139281000Y-123106184D01*
X139281000Y-123273816D01*
X139248297Y-123438228D01*
X139184147Y-123593100D01*
X139091015Y-123732481D01*
X138972481Y-123851015D01*
X138833100Y-123944147D01*
X138678228Y-124008297D01*
X138513816Y-124041000D01*
X138346184Y-124041000D01*
X138181772Y-124008297D01*
X138026900Y-123944147D01*
X137887519Y-123851015D01*
X137768985Y-123732481D01*
X137675853Y-123593100D01*
X137611703Y-123438228D01*
X137579000Y-123273816D01*
X137579000Y-123106184D01*
X137611703Y-122941772D01*
X137675853Y-122786900D01*
X137768985Y-122647519D01*
X137887519Y-122528985D01*
X138026900Y-122435853D01*
X138181772Y-122371703D01*
X138346184Y-122339000D01*
X138513816Y-122339000D01*
X138678228Y-122371703D01*
G37*
G36*
X96768228Y-122371703D02*
G01*
X96923100Y-122435853D01*
X97062481Y-122528985D01*
X97181015Y-122647519D01*
X97274147Y-122786900D01*
X97338297Y-122941772D01*
X97371000Y-123106184D01*
X97371000Y-123273816D01*
X97338297Y-123438228D01*
X97274147Y-123593100D01*
X97181015Y-123732481D01*
X97062481Y-123851015D01*
X96923100Y-123944147D01*
X96768228Y-124008297D01*
X96603816Y-124041000D01*
X96436184Y-124041000D01*
X96271772Y-124008297D01*
X96116900Y-123944147D01*
X95977519Y-123851015D01*
X95858985Y-123732481D01*
X95765853Y-123593100D01*
X95701703Y-123438228D01*
X95669000Y-123273816D01*
X95669000Y-123106184D01*
X95701703Y-122941772D01*
X95765853Y-122786900D01*
X95858985Y-122647519D01*
X95977519Y-122528985D01*
X96116900Y-122435853D01*
X96271772Y-122371703D01*
X96436184Y-122339000D01*
X96603816Y-122339000D01*
X96768228Y-122371703D01*
G37*
G36*
X104388228Y-122371703D02*
G01*
X104543100Y-122435853D01*
X104682481Y-122528985D01*
X104801015Y-122647519D01*
X104894147Y-122786900D01*
X104958297Y-122941772D01*
X104991000Y-123106184D01*
X104991000Y-123273816D01*
X104958297Y-123438228D01*
X104894147Y-123593100D01*
X104801015Y-123732481D01*
X104682481Y-123851015D01*
X104543100Y-123944147D01*
X104388228Y-124008297D01*
X104223816Y-124041000D01*
X104056184Y-124041000D01*
X103891772Y-124008297D01*
X103736900Y-123944147D01*
X103597519Y-123851015D01*
X103478985Y-123732481D01*
X103385853Y-123593100D01*
X103321703Y-123438228D01*
X103289000Y-123273816D01*
X103289000Y-123106184D01*
X103321703Y-122941772D01*
X103385853Y-122786900D01*
X103478985Y-122647519D01*
X103597519Y-122528985D01*
X103736900Y-122435853D01*
X103891772Y-122371703D01*
X104056184Y-122339000D01*
X104223816Y-122339000D01*
X104388228Y-122371703D01*
G37*
G36*
X84068228Y-122371703D02*
G01*
X84223100Y-122435853D01*
X84362481Y-122528985D01*
X84481015Y-122647519D01*
X84574147Y-122786900D01*
X84638297Y-122941772D01*
X84671000Y-123106184D01*
X84671000Y-123273816D01*
X84638297Y-123438228D01*
X84574147Y-123593100D01*
X84481015Y-123732481D01*
X84362481Y-123851015D01*
X84223100Y-123944147D01*
X84068228Y-124008297D01*
X83903816Y-124041000D01*
X83736184Y-124041000D01*
X83571772Y-124008297D01*
X83416900Y-123944147D01*
X83277519Y-123851015D01*
X83158985Y-123732481D01*
X83065853Y-123593100D01*
X83001703Y-123438228D01*
X82969000Y-123273816D01*
X82969000Y-123106184D01*
X83001703Y-122941772D01*
X83065853Y-122786900D01*
X83158985Y-122647519D01*
X83277519Y-122528985D01*
X83416900Y-122435853D01*
X83571772Y-122371703D01*
X83736184Y-122339000D01*
X83903816Y-122339000D01*
X84068228Y-122371703D01*
G37*
G36*
X77583512Y-119753927D02*
G01*
X77732812Y-119783624D01*
X77896784Y-119851544D01*
X78044354Y-119950147D01*
X78169853Y-120075646D01*
X78268456Y-120223216D01*
X78336376Y-120387188D01*
X78371000Y-120561259D01*
X78371000Y-120738741D01*
X78336376Y-120912812D01*
X78268456Y-121076784D01*
X78169853Y-121224354D01*
X78044354Y-121349853D01*
X77896784Y-121448456D01*
X77732812Y-121516376D01*
X77583512Y-121546073D01*
X77558742Y-121551000D01*
X77381258Y-121551000D01*
X77356488Y-121546073D01*
X77207188Y-121516376D01*
X77043216Y-121448456D01*
X76895646Y-121349853D01*
X76770147Y-121224354D01*
X76671544Y-121076784D01*
X76603624Y-120912812D01*
X76569000Y-120738741D01*
X76569000Y-120561259D01*
X76603624Y-120387188D01*
X76671544Y-120223216D01*
X76770147Y-120075646D01*
X76895646Y-119950147D01*
X77043216Y-119851544D01*
X77207188Y-119783624D01*
X77356488Y-119753927D01*
X77381258Y-119749000D01*
X77558742Y-119749000D01*
X77583512Y-119753927D01*
G37*
G36*
X149491000Y-121551000D02*
G01*
X147689000Y-121551000D01*
X147689000Y-119749000D01*
X149491000Y-119749000D01*
X149491000Y-121551000D01*
G37*
G36*
X104388228Y-119831703D02*
G01*
X104543100Y-119895853D01*
X104682481Y-119988985D01*
X104801015Y-120107519D01*
X104894147Y-120246900D01*
X104958297Y-120401772D01*
X104991000Y-120566184D01*
X104991000Y-120733816D01*
X104958297Y-120898228D01*
X104894147Y-121053100D01*
X104801015Y-121192481D01*
X104682481Y-121311015D01*
X104543100Y-121404147D01*
X104388228Y-121468297D01*
X104223816Y-121501000D01*
X104056184Y-121501000D01*
X103891772Y-121468297D01*
X103736900Y-121404147D01*
X103597519Y-121311015D01*
X103478985Y-121192481D01*
X103385853Y-121053100D01*
X103321703Y-120898228D01*
X103289000Y-120733816D01*
X103289000Y-120566184D01*
X103321703Y-120401772D01*
X103385853Y-120246900D01*
X103478985Y-120107519D01*
X103597519Y-119988985D01*
X103736900Y-119895853D01*
X103891772Y-119831703D01*
X104056184Y-119799000D01*
X104223816Y-119799000D01*
X104388228Y-119831703D01*
G37*
G36*
X119628228Y-119831703D02*
G01*
X119783100Y-119895853D01*
X119922481Y-119988985D01*
X120041015Y-120107519D01*
X120134147Y-120246900D01*
X120198297Y-120401772D01*
X120231000Y-120566184D01*
X120231000Y-120733816D01*
X120198297Y-120898228D01*
X120134147Y-121053100D01*
X120041015Y-121192481D01*
X119922481Y-121311015D01*
X119783100Y-121404147D01*
X119628228Y-121468297D01*
X119463816Y-121501000D01*
X119296184Y-121501000D01*
X119131772Y-121468297D01*
X118976900Y-121404147D01*
X118837519Y-121311015D01*
X118718985Y-121192481D01*
X118625853Y-121053100D01*
X118561703Y-120898228D01*
X118529000Y-120733816D01*
X118529000Y-120566184D01*
X118561703Y-120401772D01*
X118625853Y-120246900D01*
X118718985Y-120107519D01*
X118837519Y-119988985D01*
X118976900Y-119895853D01*
X119131772Y-119831703D01*
X119296184Y-119799000D01*
X119463816Y-119799000D01*
X119628228Y-119831703D01*
G37*
G36*
X84068228Y-119831703D02*
G01*
X84223100Y-119895853D01*
X84362481Y-119988985D01*
X84481015Y-120107519D01*
X84574147Y-120246900D01*
X84638297Y-120401772D01*
X84671000Y-120566184D01*
X84671000Y-120733816D01*
X84638297Y-120898228D01*
X84574147Y-121053100D01*
X84481015Y-121192481D01*
X84362481Y-121311015D01*
X84223100Y-121404147D01*
X84068228Y-121468297D01*
X83903816Y-121501000D01*
X83736184Y-121501000D01*
X83571772Y-121468297D01*
X83416900Y-121404147D01*
X83277519Y-121311015D01*
X83158985Y-121192481D01*
X83065853Y-121053100D01*
X83001703Y-120898228D01*
X82969000Y-120733816D01*
X82969000Y-120566184D01*
X83001703Y-120401772D01*
X83065853Y-120246900D01*
X83158985Y-120107519D01*
X83277519Y-119988985D01*
X83416900Y-119895853D01*
X83571772Y-119831703D01*
X83736184Y-119799000D01*
X83903816Y-119799000D01*
X84068228Y-119831703D01*
G37*
G36*
X96768228Y-119831703D02*
G01*
X96923100Y-119895853D01*
X97062481Y-119988985D01*
X97181015Y-120107519D01*
X97274147Y-120246900D01*
X97338297Y-120401772D01*
X97371000Y-120566184D01*
X97371000Y-120733816D01*
X97338297Y-120898228D01*
X97274147Y-121053100D01*
X97181015Y-121192481D01*
X97062481Y-121311015D01*
X96923100Y-121404147D01*
X96768228Y-121468297D01*
X96603816Y-121501000D01*
X96436184Y-121501000D01*
X96271772Y-121468297D01*
X96116900Y-121404147D01*
X95977519Y-121311015D01*
X95858985Y-121192481D01*
X95765853Y-121053100D01*
X95701703Y-120898228D01*
X95669000Y-120733816D01*
X95669000Y-120566184D01*
X95701703Y-120401772D01*
X95765853Y-120246900D01*
X95858985Y-120107519D01*
X95977519Y-119988985D01*
X96116900Y-119895853D01*
X96271772Y-119831703D01*
X96436184Y-119799000D01*
X96603816Y-119799000D01*
X96768228Y-119831703D01*
G37*
G36*
X137273512Y-117213927D02*
G01*
X137422812Y-117243624D01*
X137586784Y-117311544D01*
X137734354Y-117410147D01*
X137859853Y-117535646D01*
X137958456Y-117683216D01*
X138026376Y-117847188D01*
X138061000Y-118021259D01*
X138061000Y-118198741D01*
X138026376Y-118372812D01*
X137958456Y-118536784D01*
X137859853Y-118684354D01*
X137734354Y-118809853D01*
X137586784Y-118908456D01*
X137422812Y-118976376D01*
X137273512Y-119006073D01*
X137248742Y-119011000D01*
X137071258Y-119011000D01*
X137046488Y-119006073D01*
X136897188Y-118976376D01*
X136733216Y-118908456D01*
X136585646Y-118809853D01*
X136460147Y-118684354D01*
X136361544Y-118536784D01*
X136293624Y-118372812D01*
X136259000Y-118198741D01*
X136259000Y-118021259D01*
X136293624Y-117847188D01*
X136361544Y-117683216D01*
X136460147Y-117535646D01*
X136585646Y-117410147D01*
X136733216Y-117311544D01*
X136897188Y-117243624D01*
X137046488Y-117213927D01*
X137071258Y-117209000D01*
X137248742Y-117209000D01*
X137273512Y-117213927D01*
G37*
G36*
X77583512Y-117213927D02*
G01*
X77732812Y-117243624D01*
X77896784Y-117311544D01*
X78044354Y-117410147D01*
X78169853Y-117535646D01*
X78268456Y-117683216D01*
X78336376Y-117847188D01*
X78371000Y-118021259D01*
X78371000Y-118198741D01*
X78336376Y-118372812D01*
X78268456Y-118536784D01*
X78169853Y-118684354D01*
X78044354Y-118809853D01*
X77896784Y-118908456D01*
X77732812Y-118976376D01*
X77583512Y-119006073D01*
X77558742Y-119011000D01*
X77381258Y-119011000D01*
X77356488Y-119006073D01*
X77207188Y-118976376D01*
X77043216Y-118908456D01*
X76895646Y-118809853D01*
X76770147Y-118684354D01*
X76671544Y-118536784D01*
X76603624Y-118372812D01*
X76569000Y-118198741D01*
X76569000Y-118021259D01*
X76603624Y-117847188D01*
X76671544Y-117683216D01*
X76770147Y-117535646D01*
X76895646Y-117410147D01*
X77043216Y-117311544D01*
X77207188Y-117243624D01*
X77356488Y-117213927D01*
X77381258Y-117209000D01*
X77558742Y-117209000D01*
X77583512Y-117213927D01*
G37*
G36*
X134733512Y-117213927D02*
G01*
X134882812Y-117243624D01*
X135046784Y-117311544D01*
X135194354Y-117410147D01*
X135319853Y-117535646D01*
X135418456Y-117683216D01*
X135486376Y-117847188D01*
X135521000Y-118021259D01*
X135521000Y-118198741D01*
X135486376Y-118372812D01*
X135418456Y-118536784D01*
X135319853Y-118684354D01*
X135194354Y-118809853D01*
X135046784Y-118908456D01*
X134882812Y-118976376D01*
X134733512Y-119006073D01*
X134708742Y-119011000D01*
X134531258Y-119011000D01*
X134506488Y-119006073D01*
X134357188Y-118976376D01*
X134193216Y-118908456D01*
X134045646Y-118809853D01*
X133920147Y-118684354D01*
X133821544Y-118536784D01*
X133753624Y-118372812D01*
X133719000Y-118198741D01*
X133719000Y-118021259D01*
X133753624Y-117847188D01*
X133821544Y-117683216D01*
X133920147Y-117535646D01*
X134045646Y-117410147D01*
X134193216Y-117311544D01*
X134357188Y-117243624D01*
X134506488Y-117213927D01*
X134531258Y-117209000D01*
X134708742Y-117209000D01*
X134733512Y-117213927D01*
G37*
G36*
X148703512Y-117213927D02*
G01*
X148852812Y-117243624D01*
X149016784Y-117311544D01*
X149164354Y-117410147D01*
X149289853Y-117535646D01*
X149388456Y-117683216D01*
X149456376Y-117847188D01*
X149491000Y-118021259D01*
X149491000Y-118198741D01*
X149456376Y-118372812D01*
X149388456Y-118536784D01*
X149289853Y-118684354D01*
X149164354Y-118809853D01*
X149016784Y-118908456D01*
X148852812Y-118976376D01*
X148703512Y-119006073D01*
X148678742Y-119011000D01*
X148501258Y-119011000D01*
X148476488Y-119006073D01*
X148327188Y-118976376D01*
X148163216Y-118908456D01*
X148015646Y-118809853D01*
X147890147Y-118684354D01*
X147791544Y-118536784D01*
X147723624Y-118372812D01*
X147689000Y-118198741D01*
X147689000Y-118021259D01*
X147723624Y-117847188D01*
X147791544Y-117683216D01*
X147890147Y-117535646D01*
X148015646Y-117410147D01*
X148163216Y-117311544D01*
X148327188Y-117243624D01*
X148476488Y-117213927D01*
X148501258Y-117209000D01*
X148678742Y-117209000D01*
X148703512Y-117213927D01*
G37*
G36*
X132981000Y-119011000D02*
G01*
X131179000Y-119011000D01*
X131179000Y-117209000D01*
X132981000Y-117209000D01*
X132981000Y-119011000D01*
G37*
G36*
X104388228Y-117291703D02*
G01*
X104543100Y-117355853D01*
X104682481Y-117448985D01*
X104801015Y-117567519D01*
X104894147Y-117706900D01*
X104958297Y-117861772D01*
X104991000Y-118026184D01*
X104991000Y-118193816D01*
X104958297Y-118358228D01*
X104894147Y-118513100D01*
X104801015Y-118652481D01*
X104682481Y-118771015D01*
X104543100Y-118864147D01*
X104388228Y-118928297D01*
X104223816Y-118961000D01*
X104056184Y-118961000D01*
X103891772Y-118928297D01*
X103736900Y-118864147D01*
X103597519Y-118771015D01*
X103478985Y-118652481D01*
X103385853Y-118513100D01*
X103321703Y-118358228D01*
X103289000Y-118193816D01*
X103289000Y-118026184D01*
X103321703Y-117861772D01*
X103385853Y-117706900D01*
X103478985Y-117567519D01*
X103597519Y-117448985D01*
X103736900Y-117355853D01*
X103891772Y-117291703D01*
X104056184Y-117259000D01*
X104223816Y-117259000D01*
X104388228Y-117291703D01*
G37*
G36*
X119628228Y-117291703D02*
G01*
X119783100Y-117355853D01*
X119922481Y-117448985D01*
X120041015Y-117567519D01*
X120134147Y-117706900D01*
X120198297Y-117861772D01*
X120231000Y-118026184D01*
X120231000Y-118193816D01*
X120198297Y-118358228D01*
X120134147Y-118513100D01*
X120041015Y-118652481D01*
X119922481Y-118771015D01*
X119783100Y-118864147D01*
X119628228Y-118928297D01*
X119463816Y-118961000D01*
X119296184Y-118961000D01*
X119131772Y-118928297D01*
X118976900Y-118864147D01*
X118837519Y-118771015D01*
X118718985Y-118652481D01*
X118625853Y-118513100D01*
X118561703Y-118358228D01*
X118529000Y-118193816D01*
X118529000Y-118026184D01*
X118561703Y-117861772D01*
X118625853Y-117706900D01*
X118718985Y-117567519D01*
X118837519Y-117448985D01*
X118976900Y-117355853D01*
X119131772Y-117291703D01*
X119296184Y-117259000D01*
X119463816Y-117259000D01*
X119628228Y-117291703D01*
G37*
G36*
X96768228Y-117291703D02*
G01*
X96923100Y-117355853D01*
X97062481Y-117448985D01*
X97181015Y-117567519D01*
X97274147Y-117706900D01*
X97338297Y-117861772D01*
X97371000Y-118026184D01*
X97371000Y-118193816D01*
X97338297Y-118358228D01*
X97274147Y-118513100D01*
X97181015Y-118652481D01*
X97062481Y-118771015D01*
X96923100Y-118864147D01*
X96768228Y-118928297D01*
X96603816Y-118961000D01*
X96436184Y-118961000D01*
X96271772Y-118928297D01*
X96116900Y-118864147D01*
X95977519Y-118771015D01*
X95858985Y-118652481D01*
X95765853Y-118513100D01*
X95701703Y-118358228D01*
X95669000Y-118193816D01*
X95669000Y-118026184D01*
X95701703Y-117861772D01*
X95765853Y-117706900D01*
X95858985Y-117567519D01*
X95977519Y-117448985D01*
X96116900Y-117355853D01*
X96271772Y-117291703D01*
X96436184Y-117259000D01*
X96603816Y-117259000D01*
X96768228Y-117291703D01*
G37*
G36*
X84068228Y-117291703D02*
G01*
X84223100Y-117355853D01*
X84362481Y-117448985D01*
X84481015Y-117567519D01*
X84574147Y-117706900D01*
X84638297Y-117861772D01*
X84671000Y-118026184D01*
X84671000Y-118193816D01*
X84638297Y-118358228D01*
X84574147Y-118513100D01*
X84481015Y-118652481D01*
X84362481Y-118771015D01*
X84223100Y-118864147D01*
X84068228Y-118928297D01*
X83903816Y-118961000D01*
X83736184Y-118961000D01*
X83571772Y-118928297D01*
X83416900Y-118864147D01*
X83277519Y-118771015D01*
X83158985Y-118652481D01*
X83065853Y-118513100D01*
X83001703Y-118358228D01*
X82969000Y-118193816D01*
X82969000Y-118026184D01*
X83001703Y-117861772D01*
X83065853Y-117706900D01*
X83158985Y-117567519D01*
X83277519Y-117448985D01*
X83416900Y-117355853D01*
X83571772Y-117291703D01*
X83736184Y-117259000D01*
X83903816Y-117259000D01*
X84068228Y-117291703D01*
G37*
G36*
X77583512Y-114673927D02*
G01*
X77732812Y-114703624D01*
X77896784Y-114771544D01*
X78044354Y-114870147D01*
X78169853Y-114995646D01*
X78268456Y-115143216D01*
X78336376Y-115307188D01*
X78371000Y-115481259D01*
X78371000Y-115658741D01*
X78336376Y-115832812D01*
X78268456Y-115996784D01*
X78169853Y-116144354D01*
X78044354Y-116269853D01*
X77896784Y-116368456D01*
X77732812Y-116436376D01*
X77583512Y-116466073D01*
X77558742Y-116471000D01*
X77381258Y-116471000D01*
X77356488Y-116466073D01*
X77207188Y-116436376D01*
X77043216Y-116368456D01*
X76895646Y-116269853D01*
X76770147Y-116144354D01*
X76671544Y-115996784D01*
X76603624Y-115832812D01*
X76569000Y-115658741D01*
X76569000Y-115481259D01*
X76603624Y-115307188D01*
X76671544Y-115143216D01*
X76770147Y-114995646D01*
X76895646Y-114870147D01*
X77043216Y-114771544D01*
X77207188Y-114703624D01*
X77356488Y-114673927D01*
X77381258Y-114669000D01*
X77558742Y-114669000D01*
X77583512Y-114673927D01*
G37*
G36*
X148703512Y-114673927D02*
G01*
X148852812Y-114703624D01*
X149016784Y-114771544D01*
X149164354Y-114870147D01*
X149289853Y-114995646D01*
X149388456Y-115143216D01*
X149456376Y-115307188D01*
X149491000Y-115481259D01*
X149491000Y-115658741D01*
X149456376Y-115832812D01*
X149388456Y-115996784D01*
X149289853Y-116144354D01*
X149164354Y-116269853D01*
X149016784Y-116368456D01*
X148852812Y-116436376D01*
X148703512Y-116466073D01*
X148678742Y-116471000D01*
X148501258Y-116471000D01*
X148476488Y-116466073D01*
X148327188Y-116436376D01*
X148163216Y-116368456D01*
X148015646Y-116269853D01*
X147890147Y-116144354D01*
X147791544Y-115996784D01*
X147723624Y-115832812D01*
X147689000Y-115658741D01*
X147689000Y-115481259D01*
X147723624Y-115307188D01*
X147791544Y-115143216D01*
X147890147Y-114995646D01*
X148015646Y-114870147D01*
X148163216Y-114771544D01*
X148327188Y-114703624D01*
X148476488Y-114673927D01*
X148501258Y-114669000D01*
X148678742Y-114669000D01*
X148703512Y-114673927D01*
G37*
G36*
X119628228Y-114751703D02*
G01*
X119783100Y-114815853D01*
X119922481Y-114908985D01*
X120041015Y-115027519D01*
X120134147Y-115166900D01*
X120198297Y-115321772D01*
X120231000Y-115486184D01*
X120231000Y-115653816D01*
X120198297Y-115818228D01*
X120134147Y-115973100D01*
X120041015Y-116112481D01*
X119922481Y-116231015D01*
X119783100Y-116324147D01*
X119628228Y-116388297D01*
X119463816Y-116421000D01*
X119296184Y-116421000D01*
X119131772Y-116388297D01*
X118976900Y-116324147D01*
X118837519Y-116231015D01*
X118718985Y-116112481D01*
X118625853Y-115973100D01*
X118561703Y-115818228D01*
X118529000Y-115653816D01*
X118529000Y-115486184D01*
X118561703Y-115321772D01*
X118625853Y-115166900D01*
X118718985Y-115027519D01*
X118837519Y-114908985D01*
X118976900Y-114815853D01*
X119131772Y-114751703D01*
X119296184Y-114719000D01*
X119463816Y-114719000D01*
X119628228Y-114751703D01*
G37*
G36*
X104388228Y-114751703D02*
G01*
X104543100Y-114815853D01*
X104682481Y-114908985D01*
X104801015Y-115027519D01*
X104894147Y-115166900D01*
X104958297Y-115321772D01*
X104991000Y-115486184D01*
X104991000Y-115653816D01*
X104958297Y-115818228D01*
X104894147Y-115973100D01*
X104801015Y-116112481D01*
X104682481Y-116231015D01*
X104543100Y-116324147D01*
X104388228Y-116388297D01*
X104223816Y-116421000D01*
X104056184Y-116421000D01*
X103891772Y-116388297D01*
X103736900Y-116324147D01*
X103597519Y-116231015D01*
X103478985Y-116112481D01*
X103385853Y-115973100D01*
X103321703Y-115818228D01*
X103289000Y-115653816D01*
X103289000Y-115486184D01*
X103321703Y-115321772D01*
X103385853Y-115166900D01*
X103478985Y-115027519D01*
X103597519Y-114908985D01*
X103736900Y-114815853D01*
X103891772Y-114751703D01*
X104056184Y-114719000D01*
X104223816Y-114719000D01*
X104388228Y-114751703D01*
G37*
G36*
X84068228Y-114751703D02*
G01*
X84223100Y-114815853D01*
X84362481Y-114908985D01*
X84481015Y-115027519D01*
X84574147Y-115166900D01*
X84638297Y-115321772D01*
X84671000Y-115486184D01*
X84671000Y-115653816D01*
X84638297Y-115818228D01*
X84574147Y-115973100D01*
X84481015Y-116112481D01*
X84362481Y-116231015D01*
X84223100Y-116324147D01*
X84068228Y-116388297D01*
X83903816Y-116421000D01*
X83736184Y-116421000D01*
X83571772Y-116388297D01*
X83416900Y-116324147D01*
X83277519Y-116231015D01*
X83158985Y-116112481D01*
X83065853Y-115973100D01*
X83001703Y-115818228D01*
X82969000Y-115653816D01*
X82969000Y-115486184D01*
X83001703Y-115321772D01*
X83065853Y-115166900D01*
X83158985Y-115027519D01*
X83277519Y-114908985D01*
X83416900Y-114815853D01*
X83571772Y-114751703D01*
X83736184Y-114719000D01*
X83903816Y-114719000D01*
X84068228Y-114751703D01*
G37*
G36*
X96768228Y-114751703D02*
G01*
X96923100Y-114815853D01*
X97062481Y-114908985D01*
X97181015Y-115027519D01*
X97274147Y-115166900D01*
X97338297Y-115321772D01*
X97371000Y-115486184D01*
X97371000Y-115653816D01*
X97338297Y-115818228D01*
X97274147Y-115973100D01*
X97181015Y-116112481D01*
X97062481Y-116231015D01*
X96923100Y-116324147D01*
X96768228Y-116388297D01*
X96603816Y-116421000D01*
X96436184Y-116421000D01*
X96271772Y-116388297D01*
X96116900Y-116324147D01*
X95977519Y-116231015D01*
X95858985Y-116112481D01*
X95765853Y-115973100D01*
X95701703Y-115818228D01*
X95669000Y-115653816D01*
X95669000Y-115486184D01*
X95701703Y-115321772D01*
X95765853Y-115166900D01*
X95858985Y-115027519D01*
X95977519Y-114908985D01*
X96116900Y-114815853D01*
X96271772Y-114751703D01*
X96436184Y-114719000D01*
X96603816Y-114719000D01*
X96768228Y-114751703D01*
G37*
G36*
X119628228Y-112211703D02*
G01*
X119783100Y-112275853D01*
X119922481Y-112368985D01*
X120041015Y-112487519D01*
X120134147Y-112626900D01*
X120198297Y-112781772D01*
X120231000Y-112946184D01*
X120231000Y-113113816D01*
X120198297Y-113278228D01*
X120134147Y-113433100D01*
X120041015Y-113572481D01*
X119922481Y-113691015D01*
X119783100Y-113784147D01*
X119628228Y-113848297D01*
X119463816Y-113881000D01*
X119296184Y-113881000D01*
X119131772Y-113848297D01*
X118976900Y-113784147D01*
X118837519Y-113691015D01*
X118718985Y-113572481D01*
X118625853Y-113433100D01*
X118561703Y-113278228D01*
X118529000Y-113113816D01*
X118529000Y-112946184D01*
X118561703Y-112781772D01*
X118625853Y-112626900D01*
X118718985Y-112487519D01*
X118837519Y-112368985D01*
X118976900Y-112275853D01*
X119131772Y-112211703D01*
X119296184Y-112179000D01*
X119463816Y-112179000D01*
X119628228Y-112211703D01*
G37*
G36*
X84068228Y-112211703D02*
G01*
X84223100Y-112275853D01*
X84362481Y-112368985D01*
X84481015Y-112487519D01*
X84574147Y-112626900D01*
X84638297Y-112781772D01*
X84671000Y-112946184D01*
X84671000Y-113113816D01*
X84638297Y-113278228D01*
X84574147Y-113433100D01*
X84481015Y-113572481D01*
X84362481Y-113691015D01*
X84223100Y-113784147D01*
X84068228Y-113848297D01*
X83903816Y-113881000D01*
X83736184Y-113881000D01*
X83571772Y-113848297D01*
X83416900Y-113784147D01*
X83277519Y-113691015D01*
X83158985Y-113572481D01*
X83065853Y-113433100D01*
X83001703Y-113278228D01*
X82969000Y-113113816D01*
X82969000Y-112946184D01*
X83001703Y-112781772D01*
X83065853Y-112626900D01*
X83158985Y-112487519D01*
X83277519Y-112368985D01*
X83416900Y-112275853D01*
X83571772Y-112211703D01*
X83736184Y-112179000D01*
X83903816Y-112179000D01*
X84068228Y-112211703D01*
G37*
G36*
X104388228Y-112211703D02*
G01*
X104543100Y-112275853D01*
X104682481Y-112368985D01*
X104801015Y-112487519D01*
X104894147Y-112626900D01*
X104958297Y-112781772D01*
X104991000Y-112946184D01*
X104991000Y-113113816D01*
X104958297Y-113278228D01*
X104894147Y-113433100D01*
X104801015Y-113572481D01*
X104682481Y-113691015D01*
X104543100Y-113784147D01*
X104388228Y-113848297D01*
X104223816Y-113881000D01*
X104056184Y-113881000D01*
X103891772Y-113848297D01*
X103736900Y-113784147D01*
X103597519Y-113691015D01*
X103478985Y-113572481D01*
X103385853Y-113433100D01*
X103321703Y-113278228D01*
X103289000Y-113113816D01*
X103289000Y-112946184D01*
X103321703Y-112781772D01*
X103385853Y-112626900D01*
X103478985Y-112487519D01*
X103597519Y-112368985D01*
X103736900Y-112275853D01*
X103891772Y-112211703D01*
X104056184Y-112179000D01*
X104223816Y-112179000D01*
X104388228Y-112211703D01*
G37*
G36*
X96768228Y-112211703D02*
G01*
X96923100Y-112275853D01*
X97062481Y-112368985D01*
X97181015Y-112487519D01*
X97274147Y-112626900D01*
X97338297Y-112781772D01*
X97371000Y-112946184D01*
X97371000Y-113113816D01*
X97338297Y-113278228D01*
X97274147Y-113433100D01*
X97181015Y-113572481D01*
X97062481Y-113691015D01*
X96923100Y-113784147D01*
X96768228Y-113848297D01*
X96603816Y-113881000D01*
X96436184Y-113881000D01*
X96271772Y-113848297D01*
X96116900Y-113784147D01*
X95977519Y-113691015D01*
X95858985Y-113572481D01*
X95765853Y-113433100D01*
X95701703Y-113278228D01*
X95669000Y-113113816D01*
X95669000Y-112946184D01*
X95701703Y-112781772D01*
X95765853Y-112626900D01*
X95858985Y-112487519D01*
X95977519Y-112368985D01*
X96116900Y-112275853D01*
X96271772Y-112211703D01*
X96436184Y-112179000D01*
X96603816Y-112179000D01*
X96768228Y-112211703D01*
G37*
G36*
X137273512Y-110863927D02*
G01*
X137422812Y-110893624D01*
X137586784Y-110961544D01*
X137734354Y-111060147D01*
X137859853Y-111185646D01*
X137958456Y-111333216D01*
X138026376Y-111497188D01*
X138061000Y-111671259D01*
X138061000Y-111848741D01*
X138026376Y-112022812D01*
X137958456Y-112186784D01*
X137859853Y-112334354D01*
X137734354Y-112459853D01*
X137586784Y-112558456D01*
X137422812Y-112626376D01*
X137273512Y-112656073D01*
X137248742Y-112661000D01*
X137071258Y-112661000D01*
X137046488Y-112656073D01*
X136897188Y-112626376D01*
X136733216Y-112558456D01*
X136585646Y-112459853D01*
X136460147Y-112334354D01*
X136361544Y-112186784D01*
X136293624Y-112022812D01*
X136259000Y-111848741D01*
X136259000Y-111671259D01*
X136293624Y-111497188D01*
X136361544Y-111333216D01*
X136460147Y-111185646D01*
X136585646Y-111060147D01*
X136733216Y-110961544D01*
X136897188Y-110893624D01*
X137046488Y-110863927D01*
X137071258Y-110859000D01*
X137248742Y-110859000D01*
X137273512Y-110863927D01*
G37*
G36*
X134733512Y-110863927D02*
G01*
X134882812Y-110893624D01*
X135046784Y-110961544D01*
X135194354Y-111060147D01*
X135319853Y-111185646D01*
X135418456Y-111333216D01*
X135486376Y-111497188D01*
X135521000Y-111671259D01*
X135521000Y-111848741D01*
X135486376Y-112022812D01*
X135418456Y-112186784D01*
X135319853Y-112334354D01*
X135194354Y-112459853D01*
X135046784Y-112558456D01*
X134882812Y-112626376D01*
X134733512Y-112656073D01*
X134708742Y-112661000D01*
X134531258Y-112661000D01*
X134506488Y-112656073D01*
X134357188Y-112626376D01*
X134193216Y-112558456D01*
X134045646Y-112459853D01*
X133920147Y-112334354D01*
X133821544Y-112186784D01*
X133753624Y-112022812D01*
X133719000Y-111848741D01*
X133719000Y-111671259D01*
X133753624Y-111497188D01*
X133821544Y-111333216D01*
X133920147Y-111185646D01*
X134045646Y-111060147D01*
X134193216Y-110961544D01*
X134357188Y-110893624D01*
X134506488Y-110863927D01*
X134531258Y-110859000D01*
X134708742Y-110859000D01*
X134733512Y-110863927D01*
G37*
G36*
X132981000Y-112661000D02*
G01*
X131179000Y-112661000D01*
X131179000Y-110859000D01*
X132981000Y-110859000D01*
X132981000Y-112661000D01*
G37*
G36*
X119628228Y-109671703D02*
G01*
X119783100Y-109735853D01*
X119922481Y-109828985D01*
X120041015Y-109947519D01*
X120134147Y-110086900D01*
X120198297Y-110241772D01*
X120231000Y-110406184D01*
X120231000Y-110573816D01*
X120198297Y-110738228D01*
X120134147Y-110893100D01*
X120041015Y-111032481D01*
X119922481Y-111151015D01*
X119783100Y-111244147D01*
X119628228Y-111308297D01*
X119463816Y-111341000D01*
X119296184Y-111341000D01*
X119131772Y-111308297D01*
X118976900Y-111244147D01*
X118837519Y-111151015D01*
X118718985Y-111032481D01*
X118625853Y-110893100D01*
X118561703Y-110738228D01*
X118529000Y-110573816D01*
X118529000Y-110406184D01*
X118561703Y-110241772D01*
X118625853Y-110086900D01*
X118718985Y-109947519D01*
X118837519Y-109828985D01*
X118976900Y-109735853D01*
X119131772Y-109671703D01*
X119296184Y-109639000D01*
X119463816Y-109639000D01*
X119628228Y-109671703D01*
G37*
G36*
X96768228Y-109671703D02*
G01*
X96923100Y-109735853D01*
X97062481Y-109828985D01*
X97181015Y-109947519D01*
X97274147Y-110086900D01*
X97338297Y-110241772D01*
X97371000Y-110406184D01*
X97371000Y-110573816D01*
X97338297Y-110738228D01*
X97274147Y-110893100D01*
X97181015Y-111032481D01*
X97062481Y-111151015D01*
X96923100Y-111244147D01*
X96768228Y-111308297D01*
X96603816Y-111341000D01*
X96436184Y-111341000D01*
X96271772Y-111308297D01*
X96116900Y-111244147D01*
X95977519Y-111151015D01*
X95858985Y-111032481D01*
X95765853Y-110893100D01*
X95701703Y-110738228D01*
X95669000Y-110573816D01*
X95669000Y-110406184D01*
X95701703Y-110241772D01*
X95765853Y-110086900D01*
X95858985Y-109947519D01*
X95977519Y-109828985D01*
X96116900Y-109735853D01*
X96271772Y-109671703D01*
X96436184Y-109639000D01*
X96603816Y-109639000D01*
X96768228Y-109671703D01*
G37*
G36*
X104388228Y-109671703D02*
G01*
X104543100Y-109735853D01*
X104682481Y-109828985D01*
X104801015Y-109947519D01*
X104894147Y-110086900D01*
X104958297Y-110241772D01*
X104991000Y-110406184D01*
X104991000Y-110573816D01*
X104958297Y-110738228D01*
X104894147Y-110893100D01*
X104801015Y-111032481D01*
X104682481Y-111151015D01*
X104543100Y-111244147D01*
X104388228Y-111308297D01*
X104223816Y-111341000D01*
X104056184Y-111341000D01*
X103891772Y-111308297D01*
X103736900Y-111244147D01*
X103597519Y-111151015D01*
X103478985Y-111032481D01*
X103385853Y-110893100D01*
X103321703Y-110738228D01*
X103289000Y-110573816D01*
X103289000Y-110406184D01*
X103321703Y-110241772D01*
X103385853Y-110086900D01*
X103478985Y-109947519D01*
X103597519Y-109828985D01*
X103736900Y-109735853D01*
X103891772Y-109671703D01*
X104056184Y-109639000D01*
X104223816Y-109639000D01*
X104388228Y-109671703D01*
G37*
G36*
X84671000Y-111341000D02*
G01*
X82969000Y-111341000D01*
X82969000Y-109639000D01*
X84671000Y-109639000D01*
X84671000Y-111341000D01*
G37*
G36*
X145311000Y-110767000D02*
G01*
X141709000Y-110767000D01*
X141709000Y-107165000D01*
X145311000Y-107165000D01*
X145311000Y-110767000D01*
G37*
G36*
X150486979Y-107179293D02*
G01*
X150620625Y-107219834D01*
X150743784Y-107285664D01*
X150851740Y-107374260D01*
X150940336Y-107482216D01*
X151006166Y-107605375D01*
X151046707Y-107739021D01*
X151061000Y-107884140D01*
X151061000Y-110047860D01*
X151046707Y-110192979D01*
X151006166Y-110326625D01*
X150940336Y-110449784D01*
X150851740Y-110557740D01*
X150743784Y-110646336D01*
X150620625Y-110712166D01*
X150486979Y-110752707D01*
X150341860Y-110767000D01*
X148678140Y-110767000D01*
X148533021Y-110752707D01*
X148399375Y-110712166D01*
X148276216Y-110646336D01*
X148168260Y-110557740D01*
X148079664Y-110449784D01*
X148013834Y-110326625D01*
X147973293Y-110192979D01*
X147959000Y-110047860D01*
X147959000Y-107884140D01*
X147973293Y-107739021D01*
X148013834Y-107605375D01*
X148079664Y-107482216D01*
X148168260Y-107374260D01*
X148276216Y-107285664D01*
X148399375Y-107219834D01*
X148533021Y-107179293D01*
X148678140Y-107165000D01*
X150341860Y-107165000D01*
X150486979Y-107179293D01*
G37*
G36*
X125361000Y-108851000D02*
G01*
X123559000Y-108851000D01*
X123559000Y-107049000D01*
X125361000Y-107049000D01*
X125361000Y-108851000D01*
G37*
G36*
X127113512Y-107053927D02*
G01*
X127262812Y-107083624D01*
X127426784Y-107151544D01*
X127574354Y-107250147D01*
X127699853Y-107375646D01*
X127798456Y-107523216D01*
X127866376Y-107687188D01*
X127901000Y-107861259D01*
X127901000Y-108038741D01*
X127866376Y-108212812D01*
X127798456Y-108376784D01*
X127699853Y-108524354D01*
X127574354Y-108649853D01*
X127426784Y-108748456D01*
X127262812Y-108816376D01*
X127113512Y-108846073D01*
X127088742Y-108851000D01*
X126911258Y-108851000D01*
X126886488Y-108846073D01*
X126737188Y-108816376D01*
X126573216Y-108748456D01*
X126425646Y-108649853D01*
X126300147Y-108524354D01*
X126201544Y-108376784D01*
X126133624Y-108212812D01*
X126099000Y-108038741D01*
X126099000Y-107861259D01*
X126133624Y-107687188D01*
X126201544Y-107523216D01*
X126300147Y-107375646D01*
X126425646Y-107250147D01*
X126573216Y-107151544D01*
X126737188Y-107083624D01*
X126886488Y-107053927D01*
X126911258Y-107049000D01*
X127088742Y-107049000D01*
X127113512Y-107053927D01*
G37*
G36*
X104388228Y-107131703D02*
G01*
X104543100Y-107195853D01*
X104682481Y-107288985D01*
X104801015Y-107407519D01*
X104894147Y-107546900D01*
X104958297Y-107701772D01*
X104991000Y-107866184D01*
X104991000Y-108033816D01*
X104958297Y-108198228D01*
X104894147Y-108353100D01*
X104801015Y-108492481D01*
X104682481Y-108611015D01*
X104543100Y-108704147D01*
X104388228Y-108768297D01*
X104223816Y-108801000D01*
X104056184Y-108801000D01*
X103891772Y-108768297D01*
X103736900Y-108704147D01*
X103597519Y-108611015D01*
X103478985Y-108492481D01*
X103385853Y-108353100D01*
X103321703Y-108198228D01*
X103289000Y-108033816D01*
X103289000Y-107866184D01*
X103321703Y-107701772D01*
X103385853Y-107546900D01*
X103478985Y-107407519D01*
X103597519Y-107288985D01*
X103736900Y-107195853D01*
X103891772Y-107131703D01*
X104056184Y-107099000D01*
X104223816Y-107099000D01*
X104388228Y-107131703D01*
G37*
G36*
X119628228Y-107131703D02*
G01*
X119783100Y-107195853D01*
X119922481Y-107288985D01*
X120041015Y-107407519D01*
X120134147Y-107546900D01*
X120198297Y-107701772D01*
X120231000Y-107866184D01*
X120231000Y-108033816D01*
X120198297Y-108198228D01*
X120134147Y-108353100D01*
X120041015Y-108492481D01*
X119922481Y-108611015D01*
X119783100Y-108704147D01*
X119628228Y-108768297D01*
X119463816Y-108801000D01*
X119296184Y-108801000D01*
X119131772Y-108768297D01*
X118976900Y-108704147D01*
X118837519Y-108611015D01*
X118718985Y-108492481D01*
X118625853Y-108353100D01*
X118561703Y-108198228D01*
X118529000Y-108033816D01*
X118529000Y-107866184D01*
X118561703Y-107701772D01*
X118625853Y-107546900D01*
X118718985Y-107407519D01*
X118837519Y-107288985D01*
X118976900Y-107195853D01*
X119131772Y-107131703D01*
X119296184Y-107099000D01*
X119463816Y-107099000D01*
X119628228Y-107131703D01*
G37*
G36*
X104388228Y-104591703D02*
G01*
X104543100Y-104655853D01*
X104682481Y-104748985D01*
X104801015Y-104867519D01*
X104894147Y-105006900D01*
X104958297Y-105161772D01*
X104991000Y-105326184D01*
X104991000Y-105493816D01*
X104958297Y-105658228D01*
X104894147Y-105813100D01*
X104801015Y-105952481D01*
X104682481Y-106071015D01*
X104543100Y-106164147D01*
X104388228Y-106228297D01*
X104223816Y-106261000D01*
X104056184Y-106261000D01*
X103891772Y-106228297D01*
X103736900Y-106164147D01*
X103597519Y-106071015D01*
X103478985Y-105952481D01*
X103385853Y-105813100D01*
X103321703Y-105658228D01*
X103289000Y-105493816D01*
X103289000Y-105326184D01*
X103321703Y-105161772D01*
X103385853Y-105006900D01*
X103478985Y-104867519D01*
X103597519Y-104748985D01*
X103736900Y-104655853D01*
X103891772Y-104591703D01*
X104056184Y-104559000D01*
X104223816Y-104559000D01*
X104388228Y-104591703D01*
G37*
G36*
X119628228Y-104591703D02*
G01*
X119783100Y-104655853D01*
X119922481Y-104748985D01*
X120041015Y-104867519D01*
X120134147Y-105006900D01*
X120198297Y-105161772D01*
X120231000Y-105326184D01*
X120231000Y-105493816D01*
X120198297Y-105658228D01*
X120134147Y-105813100D01*
X120041015Y-105952481D01*
X119922481Y-106071015D01*
X119783100Y-106164147D01*
X119628228Y-106228297D01*
X119463816Y-106261000D01*
X119296184Y-106261000D01*
X119131772Y-106228297D01*
X118976900Y-106164147D01*
X118837519Y-106071015D01*
X118718985Y-105952481D01*
X118625853Y-105813100D01*
X118561703Y-105658228D01*
X118529000Y-105493816D01*
X118529000Y-105326184D01*
X118561703Y-105161772D01*
X118625853Y-105006900D01*
X118718985Y-104867519D01*
X118837519Y-104748985D01*
X118976900Y-104655853D01*
X119131772Y-104591703D01*
X119296184Y-104559000D01*
X119463816Y-104559000D01*
X119628228Y-104591703D01*
G37*
G36*
X147636366Y-102481695D02*
G01*
X147793460Y-102529349D01*
X147938231Y-102606731D01*
X148065128Y-102710872D01*
X148169269Y-102837769D01*
X148246651Y-102982540D01*
X148294305Y-103139634D01*
X148311000Y-103309140D01*
X148311000Y-105222860D01*
X148294305Y-105392366D01*
X148246651Y-105549460D01*
X148169269Y-105694231D01*
X148065128Y-105821128D01*
X147938231Y-105925269D01*
X147793460Y-106002651D01*
X147636366Y-106050305D01*
X147466860Y-106067000D01*
X145553140Y-106067000D01*
X145383634Y-106050305D01*
X145226540Y-106002651D01*
X145081769Y-105925269D01*
X144954872Y-105821128D01*
X144850731Y-105694231D01*
X144773349Y-105549460D01*
X144725695Y-105392366D01*
X144709000Y-105222860D01*
X144709000Y-103309140D01*
X144725695Y-103139634D01*
X144773349Y-102982540D01*
X144850731Y-102837769D01*
X144954872Y-102710872D01*
X145081769Y-102606731D01*
X145226540Y-102529349D01*
X145383634Y-102481695D01*
X145553140Y-102465000D01*
X147466860Y-102465000D01*
X147636366Y-102481695D01*
G37*
G36*
X78879000Y-105549000D02*
G01*
X77077000Y-105549000D01*
X77077000Y-103747000D01*
X78879000Y-103747000D01*
X78879000Y-105549000D01*
G37*
G36*
X95498228Y-103575703D02*
G01*
X95653100Y-103639853D01*
X95792481Y-103732985D01*
X95911015Y-103851519D01*
X96004147Y-103990900D01*
X96068297Y-104145772D01*
X96101000Y-104310184D01*
X96101000Y-104477816D01*
X96068297Y-104642228D01*
X96004147Y-104797100D01*
X95911015Y-104936481D01*
X95792481Y-105055015D01*
X95653100Y-105148147D01*
X95498228Y-105212297D01*
X95333816Y-105245000D01*
X95166184Y-105245000D01*
X95001772Y-105212297D01*
X94846900Y-105148147D01*
X94707519Y-105055015D01*
X94588985Y-104936481D01*
X94495853Y-104797100D01*
X94431703Y-104642228D01*
X94399000Y-104477816D01*
X94399000Y-104310184D01*
X94431703Y-104145772D01*
X94495853Y-103990900D01*
X94588985Y-103851519D01*
X94707519Y-103732985D01*
X94846900Y-103639853D01*
X95001772Y-103575703D01*
X95166184Y-103543000D01*
X95333816Y-103543000D01*
X95498228Y-103575703D01*
G37*
G36*
X87370228Y-103575703D02*
G01*
X87525100Y-103639853D01*
X87664481Y-103732985D01*
X87783015Y-103851519D01*
X87876147Y-103990900D01*
X87940297Y-104145772D01*
X87973000Y-104310184D01*
X87973000Y-104477816D01*
X87940297Y-104642228D01*
X87876147Y-104797100D01*
X87783015Y-104936481D01*
X87664481Y-105055015D01*
X87525100Y-105148147D01*
X87370228Y-105212297D01*
X87205816Y-105245000D01*
X87038184Y-105245000D01*
X86873772Y-105212297D01*
X86718900Y-105148147D01*
X86579519Y-105055015D01*
X86460985Y-104936481D01*
X86367853Y-104797100D01*
X86303703Y-104642228D01*
X86271000Y-104477816D01*
X86271000Y-104310184D01*
X86303703Y-104145772D01*
X86367853Y-103990900D01*
X86460985Y-103851519D01*
X86579519Y-103732985D01*
X86718900Y-103639853D01*
X86873772Y-103575703D01*
X87038184Y-103543000D01*
X87205816Y-103543000D01*
X87370228Y-103575703D01*
G37*
G36*
X91434228Y-103575703D02*
G01*
X91589100Y-103639853D01*
X91728481Y-103732985D01*
X91847015Y-103851519D01*
X91940147Y-103990900D01*
X92004297Y-104145772D01*
X92037000Y-104310184D01*
X92037000Y-104477816D01*
X92004297Y-104642228D01*
X91940147Y-104797100D01*
X91847015Y-104936481D01*
X91728481Y-105055015D01*
X91589100Y-105148147D01*
X91434228Y-105212297D01*
X91269816Y-105245000D01*
X91102184Y-105245000D01*
X90937772Y-105212297D01*
X90782900Y-105148147D01*
X90643519Y-105055015D01*
X90524985Y-104936481D01*
X90431853Y-104797100D01*
X90367703Y-104642228D01*
X90335000Y-104477816D01*
X90335000Y-104310184D01*
X90367703Y-104145772D01*
X90431853Y-103990900D01*
X90524985Y-103851519D01*
X90643519Y-103732985D01*
X90782900Y-103639853D01*
X90937772Y-103575703D01*
X91102184Y-103543000D01*
X91269816Y-103543000D01*
X91434228Y-103575703D01*
G37*
G36*
X125361000Y-103771000D02*
G01*
X123559000Y-103771000D01*
X123559000Y-101969000D01*
X125361000Y-101969000D01*
X125361000Y-103771000D01*
G37*
G36*
X127113512Y-101973927D02*
G01*
X127262812Y-102003624D01*
X127426784Y-102071544D01*
X127574354Y-102170147D01*
X127699853Y-102295646D01*
X127798456Y-102443216D01*
X127866376Y-102607188D01*
X127901000Y-102781259D01*
X127901000Y-102958741D01*
X127866376Y-103132812D01*
X127798456Y-103296784D01*
X127699853Y-103444354D01*
X127574354Y-103569853D01*
X127426784Y-103668456D01*
X127262812Y-103736376D01*
X127113512Y-103766073D01*
X127088742Y-103771000D01*
X126911258Y-103771000D01*
X126886488Y-103766073D01*
X126737188Y-103736376D01*
X126573216Y-103668456D01*
X126425646Y-103569853D01*
X126300147Y-103444354D01*
X126201544Y-103296784D01*
X126133624Y-103132812D01*
X126099000Y-102958741D01*
X126099000Y-102781259D01*
X126133624Y-102607188D01*
X126201544Y-102443216D01*
X126300147Y-102295646D01*
X126425646Y-102170147D01*
X126573216Y-102071544D01*
X126737188Y-102003624D01*
X126886488Y-101973927D01*
X126911258Y-101969000D01*
X127088742Y-101969000D01*
X127113512Y-101973927D01*
G37*
G36*
X104388228Y-102051703D02*
G01*
X104543100Y-102115853D01*
X104682481Y-102208985D01*
X104801015Y-102327519D01*
X104894147Y-102466900D01*
X104958297Y-102621772D01*
X104991000Y-102786184D01*
X104991000Y-102953816D01*
X104958297Y-103118228D01*
X104894147Y-103273100D01*
X104801015Y-103412481D01*
X104682481Y-103531015D01*
X104543100Y-103624147D01*
X104388228Y-103688297D01*
X104223816Y-103721000D01*
X104056184Y-103721000D01*
X103891772Y-103688297D01*
X103736900Y-103624147D01*
X103597519Y-103531015D01*
X103478985Y-103412481D01*
X103385853Y-103273100D01*
X103321703Y-103118228D01*
X103289000Y-102953816D01*
X103289000Y-102786184D01*
X103321703Y-102621772D01*
X103385853Y-102466900D01*
X103478985Y-102327519D01*
X103597519Y-102208985D01*
X103736900Y-102115853D01*
X103891772Y-102051703D01*
X104056184Y-102019000D01*
X104223816Y-102019000D01*
X104388228Y-102051703D01*
G37*
G36*
X119628228Y-102051703D02*
G01*
X119783100Y-102115853D01*
X119922481Y-102208985D01*
X120041015Y-102327519D01*
X120134147Y-102466900D01*
X120198297Y-102621772D01*
X120231000Y-102786184D01*
X120231000Y-102953816D01*
X120198297Y-103118228D01*
X120134147Y-103273100D01*
X120041015Y-103412481D01*
X119922481Y-103531015D01*
X119783100Y-103624147D01*
X119628228Y-103688297D01*
X119463816Y-103721000D01*
X119296184Y-103721000D01*
X119131772Y-103688297D01*
X118976900Y-103624147D01*
X118837519Y-103531015D01*
X118718985Y-103412481D01*
X118625853Y-103273100D01*
X118561703Y-103118228D01*
X118529000Y-102953816D01*
X118529000Y-102786184D01*
X118561703Y-102621772D01*
X118625853Y-102466900D01*
X118718985Y-102327519D01*
X118837519Y-102208985D01*
X118976900Y-102115853D01*
X119131772Y-102051703D01*
X119296184Y-102019000D01*
X119463816Y-102019000D01*
X119628228Y-102051703D01*
G37*
G36*
X139948228Y-102011703D02*
G01*
X140103100Y-102075853D01*
X140242481Y-102168985D01*
X140361015Y-102287519D01*
X140454147Y-102426900D01*
X140518297Y-102581772D01*
X140551000Y-102746184D01*
X140551000Y-102913816D01*
X140518297Y-103078228D01*
X140454147Y-103233100D01*
X140361015Y-103372481D01*
X140242481Y-103491015D01*
X140103100Y-103584147D01*
X139948228Y-103648297D01*
X139783816Y-103681000D01*
X139616184Y-103681000D01*
X139451772Y-103648297D01*
X139296900Y-103584147D01*
X139157519Y-103491015D01*
X139038985Y-103372481D01*
X138945853Y-103233100D01*
X138881703Y-103078228D01*
X138849000Y-102913816D01*
X138849000Y-102746184D01*
X138881703Y-102581772D01*
X138945853Y-102426900D01*
X139038985Y-102287519D01*
X139157519Y-102168985D01*
X139296900Y-102075853D01*
X139451772Y-102011703D01*
X139616184Y-101979000D01*
X139783816Y-101979000D01*
X139948228Y-102011703D01*
G37*
G36*
X78091512Y-101211927D02*
G01*
X78240812Y-101241624D01*
X78404784Y-101309544D01*
X78552354Y-101408147D01*
X78677853Y-101533646D01*
X78776456Y-101681216D01*
X78844376Y-101845188D01*
X78869003Y-101969000D01*
X78878949Y-102019000D01*
X78879000Y-102019259D01*
X78879000Y-102196741D01*
X78844376Y-102370812D01*
X78776456Y-102534784D01*
X78677853Y-102682354D01*
X78552354Y-102807853D01*
X78404784Y-102906456D01*
X78240812Y-102974376D01*
X78091512Y-103004073D01*
X78066742Y-103009000D01*
X77889258Y-103009000D01*
X77864488Y-103004073D01*
X77715188Y-102974376D01*
X77551216Y-102906456D01*
X77403646Y-102807853D01*
X77278147Y-102682354D01*
X77179544Y-102534784D01*
X77111624Y-102370812D01*
X77077000Y-102196741D01*
X77077000Y-102019259D01*
X77077052Y-102019000D01*
X77086997Y-101969000D01*
X77111624Y-101845188D01*
X77179544Y-101681216D01*
X77278147Y-101533646D01*
X77403646Y-101408147D01*
X77551216Y-101309544D01*
X77715188Y-101241624D01*
X77864488Y-101211927D01*
X77889258Y-101207000D01*
X78066742Y-101207000D01*
X78091512Y-101211927D01*
G37*
G36*
X119628228Y-99511703D02*
G01*
X119783100Y-99575853D01*
X119922481Y-99668985D01*
X120041015Y-99787519D01*
X120134147Y-99926900D01*
X120198297Y-100081772D01*
X120231000Y-100246184D01*
X120231000Y-100413816D01*
X120198297Y-100578228D01*
X120134147Y-100733100D01*
X120041015Y-100872481D01*
X119922481Y-100991015D01*
X119783100Y-101084147D01*
X119628228Y-101148297D01*
X119463816Y-101181000D01*
X119296184Y-101181000D01*
X119131772Y-101148297D01*
X118976900Y-101084147D01*
X118837519Y-100991015D01*
X118718985Y-100872481D01*
X118625853Y-100733100D01*
X118561703Y-100578228D01*
X118529000Y-100413816D01*
X118529000Y-100246184D01*
X118561703Y-100081772D01*
X118625853Y-99926900D01*
X118718985Y-99787519D01*
X118837519Y-99668985D01*
X118976900Y-99575853D01*
X119131772Y-99511703D01*
X119296184Y-99479000D01*
X119463816Y-99479000D01*
X119628228Y-99511703D01*
G37*
G36*
X140551000Y-101181000D02*
G01*
X138849000Y-101181000D01*
X138849000Y-99479000D01*
X140551000Y-99479000D01*
X140551000Y-101181000D01*
G37*
G36*
X104388228Y-99511703D02*
G01*
X104543100Y-99575853D01*
X104682481Y-99668985D01*
X104801015Y-99787519D01*
X104894147Y-99926900D01*
X104958297Y-100081772D01*
X104991000Y-100246184D01*
X104991000Y-100413816D01*
X104958297Y-100578228D01*
X104894147Y-100733100D01*
X104801015Y-100872481D01*
X104682481Y-100991015D01*
X104543100Y-101084147D01*
X104388228Y-101148297D01*
X104223816Y-101181000D01*
X104056184Y-101181000D01*
X103891772Y-101148297D01*
X103736900Y-101084147D01*
X103597519Y-100991015D01*
X103478985Y-100872481D01*
X103385853Y-100733100D01*
X103321703Y-100578228D01*
X103289000Y-100413816D01*
X103289000Y-100246184D01*
X103321703Y-100081772D01*
X103385853Y-99926900D01*
X103478985Y-99787519D01*
X103597519Y-99668985D01*
X103736900Y-99575853D01*
X103891772Y-99511703D01*
X104056184Y-99479000D01*
X104223816Y-99479000D01*
X104388228Y-99511703D01*
G37*
G36*
X78091512Y-98671927D02*
G01*
X78240812Y-98701624D01*
X78404784Y-98769544D01*
X78552354Y-98868147D01*
X78677853Y-98993646D01*
X78776456Y-99141216D01*
X78844376Y-99305188D01*
X78874073Y-99454488D01*
X78878949Y-99479000D01*
X78879000Y-99479259D01*
X78879000Y-99656741D01*
X78844376Y-99830812D01*
X78776456Y-99994784D01*
X78677853Y-100142354D01*
X78552354Y-100267853D01*
X78404784Y-100366456D01*
X78240812Y-100434376D01*
X78091512Y-100464073D01*
X78066742Y-100469000D01*
X77889258Y-100469000D01*
X77864488Y-100464073D01*
X77715188Y-100434376D01*
X77551216Y-100366456D01*
X77403646Y-100267853D01*
X77278147Y-100142354D01*
X77179544Y-99994784D01*
X77111624Y-99830812D01*
X77077000Y-99656741D01*
X77077000Y-99479259D01*
X77077052Y-99479000D01*
X77081927Y-99454488D01*
X77111624Y-99305188D01*
X77179544Y-99141216D01*
X77278147Y-98993646D01*
X77403646Y-98868147D01*
X77551216Y-98769544D01*
X77715188Y-98701624D01*
X77864488Y-98671927D01*
X77889258Y-98667000D01*
X78066742Y-98667000D01*
X78091512Y-98671927D01*
G37*
G36*
X150141000Y-99341000D02*
G01*
X147039000Y-99341000D01*
X147039000Y-96239000D01*
X150141000Y-96239000D01*
X150141000Y-99341000D01*
G37*
G36*
X119628228Y-96971703D02*
G01*
X119783100Y-97035853D01*
X119922481Y-97128985D01*
X120041015Y-97247519D01*
X120134147Y-97386900D01*
X120198297Y-97541772D01*
X120231000Y-97706184D01*
X120231000Y-97873816D01*
X120198297Y-98038228D01*
X120134147Y-98193100D01*
X120041015Y-98332481D01*
X119922481Y-98451015D01*
X119783100Y-98544147D01*
X119628228Y-98608297D01*
X119463816Y-98641000D01*
X119296184Y-98641000D01*
X119131772Y-98608297D01*
X118976900Y-98544147D01*
X118837519Y-98451015D01*
X118718985Y-98332481D01*
X118625853Y-98193100D01*
X118561703Y-98038228D01*
X118529000Y-97873816D01*
X118529000Y-97706184D01*
X118561703Y-97541772D01*
X118625853Y-97386900D01*
X118718985Y-97247519D01*
X118837519Y-97128985D01*
X118976900Y-97035853D01*
X119131772Y-96971703D01*
X119296184Y-96939000D01*
X119463816Y-96939000D01*
X119628228Y-96971703D01*
G37*
G36*
X104388228Y-96971703D02*
G01*
X104543100Y-97035853D01*
X104682481Y-97128985D01*
X104801015Y-97247519D01*
X104894147Y-97386900D01*
X104958297Y-97541772D01*
X104991000Y-97706184D01*
X104991000Y-97873816D01*
X104958297Y-98038228D01*
X104894147Y-98193100D01*
X104801015Y-98332481D01*
X104682481Y-98451015D01*
X104543100Y-98544147D01*
X104388228Y-98608297D01*
X104223816Y-98641000D01*
X104056184Y-98641000D01*
X103891772Y-98608297D01*
X103736900Y-98544147D01*
X103597519Y-98451015D01*
X103478985Y-98332481D01*
X103385853Y-98193100D01*
X103321703Y-98038228D01*
X103289000Y-97873816D01*
X103289000Y-97706184D01*
X103321703Y-97541772D01*
X103385853Y-97386900D01*
X103478985Y-97247519D01*
X103597519Y-97128985D01*
X103736900Y-97035853D01*
X103891772Y-96971703D01*
X104056184Y-96939000D01*
X104223816Y-96939000D01*
X104388228Y-96971703D01*
G37*
G36*
X78091512Y-96131927D02*
G01*
X78240812Y-96161624D01*
X78404784Y-96229544D01*
X78552354Y-96328147D01*
X78677853Y-96453646D01*
X78776456Y-96601216D01*
X78844376Y-96765188D01*
X78874073Y-96914488D01*
X78878949Y-96939000D01*
X78879000Y-96939259D01*
X78879000Y-97116741D01*
X78844376Y-97290812D01*
X78776456Y-97454784D01*
X78677853Y-97602354D01*
X78552354Y-97727853D01*
X78404784Y-97826456D01*
X78240812Y-97894376D01*
X78091512Y-97924073D01*
X78066742Y-97929000D01*
X77889258Y-97929000D01*
X77864488Y-97924073D01*
X77715188Y-97894376D01*
X77551216Y-97826456D01*
X77403646Y-97727853D01*
X77278147Y-97602354D01*
X77179544Y-97454784D01*
X77111624Y-97290812D01*
X77077000Y-97116741D01*
X77077000Y-96939259D01*
X77077052Y-96939000D01*
X77081927Y-96914488D01*
X77111624Y-96765188D01*
X77179544Y-96601216D01*
X77278147Y-96453646D01*
X77403646Y-96328147D01*
X77551216Y-96229544D01*
X77715188Y-96161624D01*
X77864488Y-96131927D01*
X77889258Y-96127000D01*
X78066742Y-96127000D01*
X78091512Y-96131927D01*
G37*
G36*
X119628228Y-94431703D02*
G01*
X119783100Y-94495853D01*
X119922481Y-94588985D01*
X120041015Y-94707519D01*
X120134147Y-94846900D01*
X120198297Y-95001772D01*
X120231000Y-95166184D01*
X120231000Y-95333816D01*
X120198297Y-95498228D01*
X120134147Y-95653100D01*
X120041015Y-95792481D01*
X119922481Y-95911015D01*
X119783100Y-96004147D01*
X119628228Y-96068297D01*
X119463816Y-96101000D01*
X119296184Y-96101000D01*
X119131772Y-96068297D01*
X118976900Y-96004147D01*
X118837519Y-95911015D01*
X118718985Y-95792481D01*
X118625853Y-95653100D01*
X118561703Y-95498228D01*
X118529000Y-95333816D01*
X118529000Y-95166184D01*
X118561703Y-95001772D01*
X118625853Y-94846900D01*
X118718985Y-94707519D01*
X118837519Y-94588985D01*
X118976900Y-94495853D01*
X119131772Y-94431703D01*
X119296184Y-94399000D01*
X119463816Y-94399000D01*
X119628228Y-94431703D01*
G37*
G36*
X104388228Y-94431703D02*
G01*
X104543100Y-94495853D01*
X104682481Y-94588985D01*
X104801015Y-94707519D01*
X104894147Y-94846900D01*
X104958297Y-95001772D01*
X104991000Y-95166184D01*
X104991000Y-95333816D01*
X104958297Y-95498228D01*
X104894147Y-95653100D01*
X104801015Y-95792481D01*
X104682481Y-95911015D01*
X104543100Y-96004147D01*
X104388228Y-96068297D01*
X104223816Y-96101000D01*
X104056184Y-96101000D01*
X103891772Y-96068297D01*
X103736900Y-96004147D01*
X103597519Y-95911015D01*
X103478985Y-95792481D01*
X103385853Y-95653100D01*
X103321703Y-95498228D01*
X103289000Y-95333816D01*
X103289000Y-95166184D01*
X103321703Y-95001772D01*
X103385853Y-94846900D01*
X103478985Y-94707519D01*
X103597519Y-94588985D01*
X103736900Y-94495853D01*
X103891772Y-94431703D01*
X104056184Y-94399000D01*
X104223816Y-94399000D01*
X104388228Y-94431703D01*
G37*
G36*
X78091512Y-93591927D02*
G01*
X78240812Y-93621624D01*
X78404784Y-93689544D01*
X78552354Y-93788147D01*
X78677853Y-93913646D01*
X78776456Y-94061216D01*
X78844376Y-94225188D01*
X78862800Y-94317815D01*
X78878949Y-94399000D01*
X78879000Y-94399259D01*
X78879000Y-94576741D01*
X78844376Y-94750812D01*
X78776456Y-94914784D01*
X78677853Y-95062354D01*
X78552354Y-95187853D01*
X78404784Y-95286456D01*
X78240812Y-95354376D01*
X78091512Y-95384073D01*
X78066742Y-95389000D01*
X77889258Y-95389000D01*
X77864488Y-95384073D01*
X77715188Y-95354376D01*
X77551216Y-95286456D01*
X77403646Y-95187853D01*
X77278147Y-95062354D01*
X77179544Y-94914784D01*
X77111624Y-94750812D01*
X77077000Y-94576741D01*
X77077000Y-94399259D01*
X77077052Y-94399000D01*
X77093200Y-94317815D01*
X77111624Y-94225188D01*
X77179544Y-94061216D01*
X77278147Y-93913646D01*
X77403646Y-93788147D01*
X77551216Y-93689544D01*
X77715188Y-93621624D01*
X77864488Y-93591927D01*
X77889258Y-93587000D01*
X78066742Y-93587000D01*
X78091512Y-93591927D01*
G37*
G36*
X87370228Y-93415703D02*
G01*
X87525100Y-93479853D01*
X87664481Y-93572985D01*
X87783015Y-93691519D01*
X87876147Y-93830900D01*
X87940297Y-93985772D01*
X87973000Y-94150184D01*
X87973000Y-94317816D01*
X87940297Y-94482228D01*
X87876147Y-94637100D01*
X87783015Y-94776481D01*
X87664481Y-94895015D01*
X87525100Y-94988147D01*
X87370228Y-95052297D01*
X87205816Y-95085000D01*
X87038184Y-95085000D01*
X86873772Y-95052297D01*
X86718900Y-94988147D01*
X86579519Y-94895015D01*
X86460985Y-94776481D01*
X86367853Y-94637100D01*
X86303703Y-94482228D01*
X86271000Y-94317816D01*
X86271000Y-94150184D01*
X86303703Y-93985772D01*
X86367853Y-93830900D01*
X86460985Y-93691519D01*
X86579519Y-93572985D01*
X86718900Y-93479853D01*
X86873772Y-93415703D01*
X87038184Y-93383000D01*
X87205816Y-93383000D01*
X87370228Y-93415703D01*
G37*
G36*
X95498228Y-93415703D02*
G01*
X95653100Y-93479853D01*
X95792481Y-93572985D01*
X95911015Y-93691519D01*
X96004147Y-93830900D01*
X96068297Y-93985772D01*
X96101000Y-94150184D01*
X96101000Y-94317816D01*
X96068297Y-94482228D01*
X96004147Y-94637100D01*
X95911015Y-94776481D01*
X95792481Y-94895015D01*
X95653100Y-94988147D01*
X95498228Y-95052297D01*
X95333816Y-95085000D01*
X95166184Y-95085000D01*
X95001772Y-95052297D01*
X94846900Y-94988147D01*
X94707519Y-94895015D01*
X94588985Y-94776481D01*
X94495853Y-94637100D01*
X94431703Y-94482228D01*
X94399000Y-94317816D01*
X94399000Y-94150184D01*
X94431703Y-93985772D01*
X94495853Y-93830900D01*
X94588985Y-93691519D01*
X94707519Y-93572985D01*
X94846900Y-93479853D01*
X95001772Y-93415703D01*
X95166184Y-93383000D01*
X95333816Y-93383000D01*
X95498228Y-93415703D01*
G37*
G36*
X91434228Y-93415703D02*
G01*
X91589100Y-93479853D01*
X91728481Y-93572985D01*
X91847015Y-93691519D01*
X91940147Y-93830900D01*
X92004297Y-93985772D01*
X92037000Y-94150184D01*
X92037000Y-94317816D01*
X92004297Y-94482228D01*
X91940147Y-94637100D01*
X91847015Y-94776481D01*
X91728481Y-94895015D01*
X91589100Y-94988147D01*
X91434228Y-95052297D01*
X91269816Y-95085000D01*
X91102184Y-95085000D01*
X90937772Y-95052297D01*
X90782900Y-94988147D01*
X90643519Y-94895015D01*
X90524985Y-94776481D01*
X90431853Y-94637100D01*
X90367703Y-94482228D01*
X90335000Y-94317816D01*
X90335000Y-94150184D01*
X90367703Y-93985772D01*
X90431853Y-93830900D01*
X90524985Y-93691519D01*
X90643519Y-93572985D01*
X90782900Y-93479853D01*
X90937772Y-93415703D01*
X91102184Y-93383000D01*
X91269816Y-93383000D01*
X91434228Y-93415703D01*
G37*
G36*
X134840098Y-93650362D02*
G01*
X134964941Y-93702074D01*
X134964943Y-93702075D01*
X135077299Y-93777149D01*
X135172851Y-93872701D01*
X135200941Y-93914740D01*
X135247926Y-93985059D01*
X135299638Y-94109902D01*
X135326000Y-94242434D01*
X135326000Y-94377566D01*
X135299638Y-94510098D01*
X135247926Y-94634941D01*
X135247925Y-94634943D01*
X135172851Y-94747299D01*
X135077299Y-94842851D01*
X134964943Y-94917925D01*
X134964942Y-94917926D01*
X134964941Y-94917926D01*
X134840098Y-94969638D01*
X134707566Y-94996000D01*
X134572434Y-94996000D01*
X134439902Y-94969638D01*
X134315059Y-94917926D01*
X134315058Y-94917926D01*
X134315057Y-94917925D01*
X134202701Y-94842851D01*
X134107149Y-94747299D01*
X134032075Y-94634943D01*
X134032074Y-94634941D01*
X133980362Y-94510098D01*
X133954000Y-94377566D01*
X133954000Y-94242434D01*
X133980362Y-94109902D01*
X134032074Y-93985059D01*
X134079060Y-93914740D01*
X134107149Y-93872701D01*
X134202701Y-93777149D01*
X134315057Y-93702075D01*
X134315059Y-93702074D01*
X134439902Y-93650362D01*
X134572434Y-93624000D01*
X134707566Y-93624000D01*
X134840098Y-93650362D01*
G37*
G36*
X148892585Y-91188802D02*
G01*
X149042410Y-91218604D01*
X149324674Y-91335521D01*
X149578705Y-91505259D01*
X149794741Y-91721295D01*
X149964479Y-91975326D01*
X150081396Y-92257590D01*
X150141000Y-92557240D01*
X150141000Y-92862760D01*
X150081396Y-93162410D01*
X149964479Y-93444674D01*
X149794741Y-93698705D01*
X149578705Y-93914741D01*
X149324674Y-94084479D01*
X149042410Y-94201396D01*
X148922799Y-94225188D01*
X148742761Y-94261000D01*
X148437239Y-94261000D01*
X148257201Y-94225188D01*
X148137590Y-94201396D01*
X147855326Y-94084479D01*
X147601295Y-93914741D01*
X147385259Y-93698705D01*
X147215521Y-93444674D01*
X147098604Y-93162410D01*
X147039000Y-92862760D01*
X147039000Y-92557240D01*
X147098604Y-92257590D01*
X147215521Y-91975326D01*
X147385259Y-91721295D01*
X147601295Y-91505259D01*
X147855326Y-91335521D01*
X148137590Y-91218604D01*
X148287415Y-91188802D01*
X148437239Y-91159000D01*
X148742761Y-91159000D01*
X148892585Y-91188802D01*
G37*
G36*
X119628228Y-91891703D02*
G01*
X119783100Y-91955853D01*
X119922481Y-92048985D01*
X120041015Y-92167519D01*
X120134147Y-92306900D01*
X120198297Y-92461772D01*
X120231000Y-92626184D01*
X120231000Y-92793816D01*
X120198297Y-92958228D01*
X120134147Y-93113100D01*
X120041015Y-93252481D01*
X119922481Y-93371015D01*
X119783100Y-93464147D01*
X119628228Y-93528297D01*
X119463816Y-93561000D01*
X119296184Y-93561000D01*
X119131772Y-93528297D01*
X118976900Y-93464147D01*
X118837519Y-93371015D01*
X118718985Y-93252481D01*
X118625853Y-93113100D01*
X118561703Y-92958228D01*
X118529000Y-92793816D01*
X118529000Y-92626184D01*
X118561703Y-92461772D01*
X118625853Y-92306900D01*
X118718985Y-92167519D01*
X118837519Y-92048985D01*
X118976900Y-91955853D01*
X119131772Y-91891703D01*
X119296184Y-91859000D01*
X119463816Y-91859000D01*
X119628228Y-91891703D01*
G37*
G36*
X104991000Y-93561000D02*
G01*
X103289000Y-93561000D01*
X103289000Y-91859000D01*
X104991000Y-91859000D01*
X104991000Y-93561000D01*
G37*
G36*
X129740098Y-92050362D02*
G01*
X129864941Y-92102074D01*
X129864943Y-92102075D01*
X129962887Y-92167519D01*
X129977299Y-92177149D01*
X130072851Y-92272701D01*
X130147926Y-92385059D01*
X130199638Y-92509902D01*
X130226000Y-92642434D01*
X130226000Y-92777566D01*
X130199638Y-92910098D01*
X130179701Y-92958229D01*
X130147925Y-93034943D01*
X130072851Y-93147299D01*
X129977299Y-93242851D01*
X129864943Y-93317925D01*
X129864942Y-93317926D01*
X129864941Y-93317926D01*
X129740098Y-93369638D01*
X129607566Y-93396000D01*
X129472434Y-93396000D01*
X129339902Y-93369638D01*
X129215059Y-93317926D01*
X129215058Y-93317926D01*
X129215057Y-93317925D01*
X129102701Y-93242851D01*
X129007149Y-93147299D01*
X128932075Y-93034943D01*
X128900299Y-92958229D01*
X128880362Y-92910098D01*
X128854000Y-92777566D01*
X128854000Y-92642434D01*
X128880362Y-92509902D01*
X128932074Y-92385059D01*
X129007149Y-92272701D01*
X129102701Y-92177149D01*
X129117113Y-92167519D01*
X129215057Y-92102075D01*
X129215059Y-92102074D01*
X129339902Y-92050362D01*
X129472434Y-92024000D01*
X129607566Y-92024000D01*
X129740098Y-92050362D01*
G37*
G36*
X95897000Y-90817000D02*
G01*
X94095000Y-90817000D01*
X94095000Y-89015000D01*
X95897000Y-89015000D01*
X95897000Y-90817000D01*
G37*
G36*
X92569512Y-89019927D02*
G01*
X92718812Y-89049624D01*
X92882784Y-89117544D01*
X93030354Y-89216147D01*
X93155853Y-89341646D01*
X93254456Y-89489216D01*
X93322376Y-89653188D01*
X93357000Y-89827259D01*
X93357000Y-90004741D01*
X93322376Y-90178812D01*
X93254456Y-90342784D01*
X93155853Y-90490354D01*
X93030354Y-90615853D01*
X92882784Y-90714456D01*
X92718812Y-90782376D01*
X92569512Y-90812073D01*
X92544742Y-90817000D01*
X92367258Y-90817000D01*
X92342488Y-90812073D01*
X92193188Y-90782376D01*
X92029216Y-90714456D01*
X91881646Y-90615853D01*
X91756147Y-90490354D01*
X91657544Y-90342784D01*
X91589624Y-90178812D01*
X91555000Y-90004741D01*
X91555000Y-89827259D01*
X91589624Y-89653188D01*
X91657544Y-89489216D01*
X91756147Y-89341646D01*
X91881646Y-89216147D01*
X92029216Y-89117544D01*
X92193188Y-89049624D01*
X92342488Y-89019927D01*
X92367258Y-89015000D01*
X92544742Y-89015000D01*
X92569512Y-89019927D01*
G37*
G36*
X90029512Y-89019927D02*
G01*
X90178812Y-89049624D01*
X90342784Y-89117544D01*
X90490354Y-89216147D01*
X90615853Y-89341646D01*
X90714456Y-89489216D01*
X90782376Y-89653188D01*
X90817000Y-89827259D01*
X90817000Y-90004741D01*
X90782376Y-90178812D01*
X90714456Y-90342784D01*
X90615853Y-90490354D01*
X90490354Y-90615853D01*
X90342784Y-90714456D01*
X90178812Y-90782376D01*
X90029512Y-90812073D01*
X90004742Y-90817000D01*
X89827258Y-90817000D01*
X89802488Y-90812073D01*
X89653188Y-90782376D01*
X89489216Y-90714456D01*
X89341646Y-90615853D01*
X89216147Y-90490354D01*
X89117544Y-90342784D01*
X89049624Y-90178812D01*
X89015000Y-90004741D01*
X89015000Y-89827259D01*
X89049624Y-89653188D01*
X89117544Y-89489216D01*
X89216147Y-89341646D01*
X89341646Y-89216147D01*
X89489216Y-89117544D01*
X89653188Y-89049624D01*
X89802488Y-89019927D01*
X89827258Y-89015000D01*
X90004742Y-89015000D01*
X90029512Y-89019927D01*
G37*
G36*
X87489512Y-89019927D02*
G01*
X87638812Y-89049624D01*
X87802784Y-89117544D01*
X87950354Y-89216147D01*
X88075853Y-89341646D01*
X88174456Y-89489216D01*
X88242376Y-89653188D01*
X88277000Y-89827259D01*
X88277000Y-90004741D01*
X88242376Y-90178812D01*
X88174456Y-90342784D01*
X88075853Y-90490354D01*
X87950354Y-90615853D01*
X87802784Y-90714456D01*
X87638812Y-90782376D01*
X87489512Y-90812073D01*
X87464742Y-90817000D01*
X87287258Y-90817000D01*
X87262488Y-90812073D01*
X87113188Y-90782376D01*
X86949216Y-90714456D01*
X86801646Y-90615853D01*
X86676147Y-90490354D01*
X86577544Y-90342784D01*
X86509624Y-90178812D01*
X86475000Y-90004741D01*
X86475000Y-89827259D01*
X86509624Y-89653188D01*
X86577544Y-89489216D01*
X86676147Y-89341646D01*
X86801646Y-89216147D01*
X86949216Y-89117544D01*
X87113188Y-89049624D01*
X87262488Y-89019927D01*
X87287258Y-89015000D01*
X87464742Y-89015000D01*
X87489512Y-89019927D01*
G37*
M02*
