G04 #@! TF.GenerationSoftware,KiCad,Pcbnew,5.1.5+dfsg1-2build2*
G04 #@! TF.CreationDate,2020-11-19T11:24:51+00:00*
G04 #@! TF.ProjectId,PIDController,50494443-6f6e-4747-926f-6c6c65722e6b,rev?*
G04 #@! TF.SameCoordinates,Original*
G04 #@! TF.FileFunction,Copper,L2,Bot*
G04 #@! TF.FilePolarity,Positive*
%FSLAX46Y46*%
G04 Gerber Fmt 4.6, Leading zero omitted, Abs format (unit mm)*
G04 Created by KiCad (PCBNEW 5.1.5+dfsg1-2build2) date 2020-11-19 11:24:51*
%MOMM*%
%LPD*%
G04 APERTURE LIST*
%ADD10C,1.600000*%
%ADD11O,1.600000X1.600000*%
%ADD12R,1.600000X1.600000*%
%ADD13C,3.000000*%
%ADD14R,3.000000X3.000000*%
%ADD15C,1.270000*%
%ADD16R,1.700000X1.700000*%
%ADD17O,1.700000X1.700000*%
%ADD18R,3.500000X3.500000*%
%ADD19C,0.100000*%
%ADD20C,0.500000*%
G04 APERTURE END LIST*
D10*
X87122000Y-104394000D03*
D11*
X87122000Y-94234000D03*
D12*
X104140000Y-92710000D03*
D11*
X119380000Y-125730000D03*
X104140000Y-95250000D03*
X119380000Y-123190000D03*
X104140000Y-97790000D03*
X119380000Y-120650000D03*
X104140000Y-100330000D03*
X119380000Y-118110000D03*
X104140000Y-102870000D03*
X119380000Y-115570000D03*
X104140000Y-105410000D03*
X119380000Y-113030000D03*
X104140000Y-107950000D03*
X119380000Y-110490000D03*
X104140000Y-110490000D03*
X119380000Y-107950000D03*
X104140000Y-113030000D03*
X119380000Y-105410000D03*
X104140000Y-115570000D03*
X119380000Y-102870000D03*
X104140000Y-118110000D03*
X119380000Y-100330000D03*
X104140000Y-120650000D03*
X119380000Y-97790000D03*
X104140000Y-123190000D03*
X119380000Y-95250000D03*
X104140000Y-125730000D03*
X119380000Y-92710000D03*
X104140000Y-128270000D03*
X119380000Y-128270000D03*
D13*
X148590000Y-92710000D03*
D14*
X148590000Y-97790000D03*
D12*
X83820000Y-110490000D03*
D11*
X96520000Y-128270000D03*
X83820000Y-113030000D03*
X96520000Y-125730000D03*
X83820000Y-115570000D03*
X96520000Y-123190000D03*
X83820000Y-118110000D03*
X96520000Y-120650000D03*
X83820000Y-120650000D03*
X96520000Y-118110000D03*
X83820000Y-123190000D03*
X96520000Y-115570000D03*
X83820000Y-125730000D03*
X96520000Y-113030000D03*
X83820000Y-128270000D03*
X96520000Y-110490000D03*
D15*
X134640000Y-94310000D03*
X129540000Y-92710000D03*
D16*
X77978000Y-104648000D03*
D17*
X77978000Y-102108000D03*
X77978000Y-99568000D03*
X77978000Y-97028000D03*
X77978000Y-94488000D03*
D16*
X94996000Y-89916000D03*
D17*
X92456000Y-89916000D03*
X89916000Y-89916000D03*
X87376000Y-89916000D03*
D16*
X148590000Y-120650000D03*
D17*
X148590000Y-118110000D03*
X148590000Y-115570000D03*
X137160000Y-111760000D03*
X134620000Y-111760000D03*
D16*
X132080000Y-111760000D03*
X132080000Y-118110000D03*
D17*
X134620000Y-118110000D03*
X137160000Y-118110000D03*
X77470000Y-115570000D03*
X77470000Y-118110000D03*
X77470000Y-120650000D03*
D16*
X77470000Y-123190000D03*
X124460000Y-102870000D03*
D17*
X127000000Y-102870000D03*
X127000000Y-107950000D03*
D16*
X124460000Y-107950000D03*
X125730000Y-128270000D03*
D17*
X128270000Y-128270000D03*
D10*
X128270000Y-123190000D03*
D11*
X138430000Y-123190000D03*
D12*
X139700000Y-100330000D03*
D10*
X139700000Y-102830000D03*
D18*
X143510000Y-108966000D03*
G04 #@! TA.AperFunction,ComponentPad*
D19*
G36*
X150333513Y-107219611D02*
G01*
X150406318Y-107230411D01*
X150477714Y-107248295D01*
X150547013Y-107273090D01*
X150613548Y-107304559D01*
X150676678Y-107342398D01*
X150735795Y-107386242D01*
X150790330Y-107435670D01*
X150839758Y-107490205D01*
X150883602Y-107549322D01*
X150921441Y-107612452D01*
X150952910Y-107678987D01*
X150977705Y-107748286D01*
X150995589Y-107819682D01*
X151006389Y-107892487D01*
X151010000Y-107966000D01*
X151010000Y-109966000D01*
X151006389Y-110039513D01*
X150995589Y-110112318D01*
X150977705Y-110183714D01*
X150952910Y-110253013D01*
X150921441Y-110319548D01*
X150883602Y-110382678D01*
X150839758Y-110441795D01*
X150790330Y-110496330D01*
X150735795Y-110545758D01*
X150676678Y-110589602D01*
X150613548Y-110627441D01*
X150547013Y-110658910D01*
X150477714Y-110683705D01*
X150406318Y-110701589D01*
X150333513Y-110712389D01*
X150260000Y-110716000D01*
X148760000Y-110716000D01*
X148686487Y-110712389D01*
X148613682Y-110701589D01*
X148542286Y-110683705D01*
X148472987Y-110658910D01*
X148406452Y-110627441D01*
X148343322Y-110589602D01*
X148284205Y-110545758D01*
X148229670Y-110496330D01*
X148180242Y-110441795D01*
X148136398Y-110382678D01*
X148098559Y-110319548D01*
X148067090Y-110253013D01*
X148042295Y-110183714D01*
X148024411Y-110112318D01*
X148013611Y-110039513D01*
X148010000Y-109966000D01*
X148010000Y-107966000D01*
X148013611Y-107892487D01*
X148024411Y-107819682D01*
X148042295Y-107748286D01*
X148067090Y-107678987D01*
X148098559Y-107612452D01*
X148136398Y-107549322D01*
X148180242Y-107490205D01*
X148229670Y-107435670D01*
X148284205Y-107386242D01*
X148343322Y-107342398D01*
X148406452Y-107304559D01*
X148472987Y-107273090D01*
X148542286Y-107248295D01*
X148613682Y-107230411D01*
X148686487Y-107219611D01*
X148760000Y-107216000D01*
X150260000Y-107216000D01*
X150333513Y-107219611D01*
G37*
G04 #@! TD.AperFunction*
G04 #@! TA.AperFunction,ComponentPad*
G36*
X147470765Y-102520213D02*
G01*
X147555704Y-102532813D01*
X147638999Y-102553677D01*
X147719848Y-102582605D01*
X147797472Y-102619319D01*
X147871124Y-102663464D01*
X147940094Y-102714616D01*
X148003718Y-102772282D01*
X148061384Y-102835906D01*
X148112536Y-102904876D01*
X148156681Y-102978528D01*
X148193395Y-103056152D01*
X148222323Y-103137001D01*
X148243187Y-103220296D01*
X148255787Y-103305235D01*
X148260000Y-103391000D01*
X148260000Y-105141000D01*
X148255787Y-105226765D01*
X148243187Y-105311704D01*
X148222323Y-105394999D01*
X148193395Y-105475848D01*
X148156681Y-105553472D01*
X148112536Y-105627124D01*
X148061384Y-105696094D01*
X148003718Y-105759718D01*
X147940094Y-105817384D01*
X147871124Y-105868536D01*
X147797472Y-105912681D01*
X147719848Y-105949395D01*
X147638999Y-105978323D01*
X147555704Y-105999187D01*
X147470765Y-106011787D01*
X147385000Y-106016000D01*
X145635000Y-106016000D01*
X145549235Y-106011787D01*
X145464296Y-105999187D01*
X145381001Y-105978323D01*
X145300152Y-105949395D01*
X145222528Y-105912681D01*
X145148876Y-105868536D01*
X145079906Y-105817384D01*
X145016282Y-105759718D01*
X144958616Y-105696094D01*
X144907464Y-105627124D01*
X144863319Y-105553472D01*
X144826605Y-105475848D01*
X144797677Y-105394999D01*
X144776813Y-105311704D01*
X144764213Y-105226765D01*
X144760000Y-105141000D01*
X144760000Y-103391000D01*
X144764213Y-103305235D01*
X144776813Y-103220296D01*
X144797677Y-103137001D01*
X144826605Y-103056152D01*
X144863319Y-102978528D01*
X144907464Y-102904876D01*
X144958616Y-102835906D01*
X145016282Y-102772282D01*
X145079906Y-102714616D01*
X145148876Y-102663464D01*
X145222528Y-102619319D01*
X145300152Y-102582605D01*
X145381001Y-102553677D01*
X145464296Y-102532813D01*
X145549235Y-102520213D01*
X145635000Y-102516000D01*
X147385000Y-102516000D01*
X147470765Y-102520213D01*
G37*
G04 #@! TD.AperFunction*
D10*
X95250000Y-104394000D03*
D11*
X95250000Y-94234000D03*
X91186000Y-94234000D03*
D10*
X91186000Y-104394000D03*
D20*
X86868000Y-94488000D02*
X87122000Y-94234000D01*
X77978000Y-94488000D02*
X86868000Y-94488000D01*
X87122000Y-94234000D02*
X91186000Y-94234000D01*
X91186000Y-94234000D02*
X95250000Y-94234000D01*
X92456000Y-89916000D02*
X90170000Y-87630000D01*
X90170000Y-87630000D02*
X82677000Y-87630000D01*
X77978000Y-92329000D02*
X77978000Y-94488000D01*
X82677000Y-87630000D02*
X77978000Y-92329000D01*
X74168000Y-95123000D02*
X74803000Y-94488000D01*
X74803000Y-94488000D02*
X77978000Y-94488000D01*
X74168000Y-105410000D02*
X74168000Y-95123000D01*
X77978000Y-109220000D02*
X74168000Y-105410000D01*
X111313990Y-133796010D02*
X97246047Y-133796010D01*
X119380000Y-125730000D02*
X111313990Y-133796010D01*
X80885593Y-112027407D02*
X80885593Y-114032593D01*
X80885593Y-112027407D02*
X77978000Y-109220000D01*
X81172999Y-114319999D02*
X86125999Y-114319999D01*
X80885593Y-114032593D02*
X81172999Y-114319999D01*
X86125999Y-114319999D02*
X87122000Y-115316000D01*
X87122000Y-123952000D02*
X87503000Y-124333000D01*
X87122000Y-115316000D02*
X87122000Y-123952000D01*
X97246047Y-133796010D02*
X87503000Y-124333000D01*
X121920000Y-123190000D02*
X128270000Y-123190000D01*
X119380000Y-120650000D02*
X121920000Y-123190000D01*
X143510000Y-106640000D02*
X139700000Y-102830000D01*
X143510000Y-108966000D02*
X143510000Y-106640000D01*
X127000000Y-102870000D02*
X127000000Y-107950000D01*
X153416000Y-116586000D02*
X152400000Y-115570000D01*
X153416000Y-125730000D02*
X153416000Y-116586000D01*
X150876000Y-128270000D02*
X153416000Y-125730000D01*
X152400000Y-115570000D02*
X148590000Y-115570000D01*
X128270000Y-128270000D02*
X150876000Y-128270000D01*
X83820000Y-125730000D02*
X92710000Y-134620000D01*
X144526000Y-134620000D02*
X150876000Y-128270000D01*
X92710000Y-134620000D02*
X144526000Y-134620000D01*
X146050000Y-118110000D02*
X148590000Y-115570000D01*
X137160000Y-118110000D02*
X146050000Y-118110000D01*
X126150001Y-102020001D02*
X119380000Y-95250000D01*
X127000000Y-102870000D02*
X126150001Y-102020001D01*
X83820000Y-110490000D02*
X77978000Y-104648000D01*
X137160000Y-111760000D02*
X140970000Y-115570000D01*
X93036002Y-100330000D02*
X104140000Y-100330000D01*
X88773000Y-106837000D02*
X88773000Y-104593002D01*
X85120000Y-110490000D02*
X88773000Y-106837000D01*
X88773000Y-104593002D02*
X93036002Y-100330000D01*
X83820000Y-110490000D02*
X85120000Y-110490000D01*
X112914630Y-89916000D02*
X112776000Y-89916000D01*
X118248630Y-95250000D02*
X112914630Y-89916000D01*
X119380000Y-95250000D02*
X118248630Y-95250000D01*
X112776000Y-89916000D02*
X94996000Y-89916000D01*
X143510000Y-108966000D02*
X143510000Y-115570000D01*
X143510000Y-115570000D02*
X148590000Y-115570000D01*
X140970000Y-115570000D02*
X143510000Y-115570000D01*
X147193000Y-115570000D02*
X148590000Y-115570000D01*
X139700000Y-102830000D02*
X140883000Y-102830000D01*
X145923000Y-97790000D02*
X148590000Y-97790000D01*
X140883000Y-102830000D02*
X145923000Y-97790000D01*
X120904000Y-89916000D02*
X112776000Y-89916000D01*
X133818000Y-102830000D02*
X120904000Y-89916000D01*
X139700000Y-102830000D02*
X133818000Y-102830000D01*
X117094000Y-122174000D02*
X117094000Y-120396000D01*
X106172000Y-133096000D02*
X117094000Y-122174000D01*
X97536000Y-133096000D02*
X106172000Y-133096000D01*
X117094000Y-120396000D02*
X119380000Y-118110000D01*
X89662000Y-125222000D02*
X97536000Y-133096000D01*
X89662000Y-114808000D02*
X89662000Y-125222000D01*
X87884000Y-113030000D02*
X89662000Y-114808000D01*
X83820000Y-113030000D02*
X87884000Y-113030000D01*
X84836000Y-102108000D02*
X87122000Y-104394000D01*
X77978000Y-102108000D02*
X84836000Y-102108000D01*
X105683999Y-99079999D02*
X106045000Y-99441000D01*
X106045000Y-100965000D02*
X104140000Y-102870000D01*
X106045000Y-99441000D02*
X106045000Y-100965000D01*
X92456000Y-99060000D02*
X92710000Y-99060000D01*
X87122000Y-104394000D02*
X92456000Y-99060000D01*
X92710000Y-99060000D02*
X105683999Y-99079999D01*
X115570000Y-120650000D02*
X115570000Y-119380000D01*
X104648000Y-131572000D02*
X115570000Y-120650000D01*
X118580001Y-116369999D02*
X119380000Y-115570000D01*
X115570000Y-119380000D02*
X118580001Y-116369999D01*
X99822000Y-131572000D02*
X104648000Y-131572000D01*
X96520000Y-128270000D02*
X99822000Y-131572000D01*
X77978000Y-97028000D02*
X100076000Y-97028000D01*
X100564001Y-96539999D02*
X106191999Y-96539999D01*
X100076000Y-97028000D02*
X100564001Y-96539999D01*
X106191999Y-96539999D02*
X107188000Y-97536000D01*
X107188000Y-102362000D02*
X104140000Y-105410000D01*
X107188000Y-97536000D02*
X107188000Y-102362000D01*
X96266000Y-105410000D02*
X95250000Y-104394000D01*
X104140000Y-105410000D02*
X96266000Y-105410000D01*
X124460000Y-118110000D02*
X119380000Y-113030000D01*
X132080000Y-118110000D02*
X124460000Y-118110000D01*
X101600000Y-120650000D02*
X104140000Y-123190000D01*
X96520000Y-120650000D02*
X101600000Y-120650000D01*
X120650000Y-111760000D02*
X119380000Y-110490000D01*
X132080000Y-111760000D02*
X120650000Y-111760000D01*
X102997000Y-110490000D02*
X104140000Y-110490000D01*
X105429999Y-114280001D02*
X101961001Y-114280001D01*
X109474000Y-94869000D02*
X109474000Y-110236000D01*
X101854000Y-91059000D02*
X105664000Y-91059000D01*
X101219000Y-91694000D02*
X101854000Y-91059000D01*
X109474000Y-110236000D02*
X105429999Y-114280001D01*
X105664000Y-91059000D02*
X109474000Y-94869000D01*
X91694000Y-91694000D02*
X101219000Y-91694000D01*
X89916000Y-89916000D02*
X91694000Y-91694000D01*
X101961001Y-111779999D02*
X101981000Y-111760000D01*
X101961001Y-114280001D02*
X101961001Y-111779999D01*
X101981000Y-111760000D02*
X102997000Y-110490000D01*
X119380000Y-107950000D02*
X124460000Y-107950000D01*
X108585000Y-108585000D02*
X107569000Y-109601000D01*
X106318999Y-93999999D02*
X108585000Y-96266000D01*
X98952999Y-93999999D02*
X106318999Y-93999999D01*
X107569000Y-109601000D02*
X104140000Y-113030000D01*
X97936999Y-92983999D02*
X98952999Y-93999999D01*
X108585000Y-96266000D02*
X108585000Y-108585000D01*
X90443999Y-92983999D02*
X97936999Y-92983999D01*
X87376000Y-89916000D02*
X90443999Y-92983999D01*
X96520000Y-115570000D02*
X98044000Y-117094000D01*
X103124000Y-117094000D02*
X104140000Y-118110000D01*
X98044000Y-117094000D02*
X103124000Y-117094000D01*
X101600000Y-128270000D02*
X104140000Y-128270000D01*
X96520000Y-123190000D02*
X101600000Y-128270000D01*
X119380000Y-102870000D02*
X124460000Y-102870000D01*
X100310001Y-129520001D02*
X104740001Y-129520001D01*
X104740001Y-129520001D02*
X113030000Y-121230002D01*
X96520000Y-125730000D02*
X100310001Y-129520001D01*
X113030000Y-111760000D02*
X119380000Y-105410000D01*
X113030000Y-121230002D02*
X113030000Y-111760000D01*
X101600000Y-110490000D02*
X104140000Y-107950000D01*
X96520000Y-110490000D02*
X101600000Y-110490000D01*
X103340001Y-119850001D02*
X104140000Y-120650000D01*
X102399999Y-118909999D02*
X103340001Y-119850001D01*
X97319999Y-118909999D02*
X102399999Y-118909999D01*
X96520000Y-118110000D02*
X97319999Y-118909999D01*
X91186000Y-105525370D02*
X91186000Y-104394000D01*
X91186000Y-118872000D02*
X91186000Y-105525370D01*
X94234000Y-121920000D02*
X91186000Y-118872000D01*
X103008630Y-125730000D02*
X99198630Y-121920000D01*
X99198630Y-121920000D02*
X94234000Y-121920000D01*
X104140000Y-125730000D02*
X103008630Y-125730000D01*
X87356001Y-111779999D02*
X89631999Y-109504001D01*
X82599997Y-111779999D02*
X87356001Y-111779999D01*
X89631999Y-105948001D02*
X91186000Y-104394000D01*
X78896998Y-108077000D02*
X82599997Y-111779999D01*
X89631999Y-109504001D02*
X89631999Y-105948001D01*
X78105000Y-108077000D02*
X78896998Y-108077000D01*
X75438000Y-105410000D02*
X78105000Y-108077000D01*
X75438000Y-100330000D02*
X75438000Y-105410000D01*
X76200000Y-99568000D02*
X75438000Y-100330000D01*
X77978000Y-99568000D02*
X76200000Y-99568000D01*
X134620000Y-111760000D02*
X134620000Y-118110000D01*
X137160000Y-120650000D02*
X148590000Y-120650000D01*
X134620000Y-118110000D02*
X137160000Y-120650000D01*
X119380000Y-92710000D02*
X121412000Y-92710000D01*
X134620000Y-105918000D02*
X134620000Y-111760000D01*
X121412000Y-92710000D02*
X134620000Y-105918000D01*
X99060000Y-115570000D02*
X104140000Y-115570000D01*
X96520000Y-113030000D02*
X99060000Y-115570000D01*
X119380000Y-128270000D02*
X125730000Y-128270000D01*
X77470000Y-118110000D02*
X78720001Y-119360001D01*
X85705001Y-117455001D02*
X85598000Y-117348000D01*
X85705001Y-119360001D02*
X85705001Y-117455001D01*
X85598000Y-117348000D02*
X83820000Y-115570000D01*
X78720001Y-119360001D02*
X85705001Y-119360001D01*
X81280000Y-115570000D02*
X83820000Y-118110000D01*
X77470000Y-115570000D02*
X81280000Y-115570000D01*
X77470000Y-120650000D02*
X83820000Y-120650000D01*
X77470000Y-123190000D02*
X83820000Y-123190000D01*
X137160000Y-100330000D02*
X139700000Y-100330000D01*
X129540000Y-92710000D02*
X137160000Y-100330000D01*
X151384000Y-108966000D02*
X149510000Y-108966000D01*
X153924000Y-106426000D02*
X151384000Y-108966000D01*
X153924000Y-97536000D02*
X153924000Y-106426000D01*
X151638000Y-95250000D02*
X153924000Y-97536000D01*
X143510000Y-95250000D02*
X151638000Y-95250000D01*
X142920001Y-95839999D02*
X143510000Y-95250000D01*
X142890001Y-95839999D02*
X142920001Y-95839999D01*
X139700000Y-99030000D02*
X142890001Y-95839999D01*
X139700000Y-100330000D02*
X139700000Y-99030000D01*
X151010000Y-108966000D02*
X155956000Y-113912000D01*
X149510000Y-108966000D02*
X151010000Y-108966000D01*
X155956000Y-113912000D02*
X155956000Y-131318000D01*
X155956000Y-131318000D02*
X151638000Y-135636000D01*
X151638000Y-135636000D02*
X91186000Y-135636000D01*
X91186000Y-135636000D02*
X83820000Y-128270000D01*
X136240000Y-92710000D02*
X134640000Y-94310000D01*
X148590000Y-92710000D02*
X136240000Y-92710000D01*
X151638000Y-119634000D02*
X150114000Y-118110000D01*
X150114000Y-118110000D02*
X148590000Y-118110000D01*
X150749000Y-123190000D02*
X151638000Y-122301000D01*
X138430000Y-123190000D02*
X150749000Y-123190000D01*
X151638000Y-122301000D02*
X151638000Y-119634000D01*
M02*
